<svg width="16" height="20" viewBox="0 0 16 20" fill="none" xmlns="http://www.w3.org/2000/svg">
<path d="M0.500002 11.6666C0.500002 10.7461 1.24619 9.99992 2.16667 9.99992H4.66667C5.58714 9.99992 6.33334 10.7461 6.33334 11.6666V17.4999C6.33334 18.4204 5.58714 19.1666 4.66667 19.1666H2.16667C1.24619 19.1666 0.500002 18.4204 0.500002 17.4999V11.6666Z" stroke="#6B7280" stroke-width="0.933333"/>
<path d="M9.66667 2.49992C9.66667 1.57944 10.4129 0.833252 11.3333 0.833252H13.8333C14.7538 0.833252 15.5 1.57944 15.5 2.49992V8.33325C15.5 9.25373 14.7538 9.99992 13.8333 9.99992H11.3333C10.4129 9.99992 9.66667 9.25373 9.66667 8.33325V2.49992Z" stroke="#6B7280" stroke-width="0.933333"/>
<path d="M9.66667 14.9999C9.66667 14.0794 10.4129 13.3333 11.3333 13.3333H13.8333C14.7538 13.3333 15.5 14.0794 15.5 14.9999V17.4999C15.5 18.4204 14.7538 19.1666 13.8333 19.1666H11.3333C10.4129 19.1666 9.66667 18.4204 9.66667 17.4999V14.9999Z" stroke="#6B7280" stroke-width="0.933333"/>
<path d="M0.5 2.49992C0.5 1.57944 1.24619 0.833252 2.16667 0.833252H4.66667C5.58714 0.833252 6.33333 1.57944 6.33333 2.49992V4.99992C6.33333 5.92039 5.58714 6.66659 4.66667 6.66659H2.16667C1.24619 6.66659 0.5 5.92039 0.5 4.99992V2.49992Z" stroke="#6B7280" stroke-width="0.933333"/>
</svg>
