<svg width="20" height="20" viewBox="0 0 20 20" fill="none" xmlns="http://www.w3.org/2000/svg">
<path fill-rule="evenodd" clip-rule="evenodd" d="M10 20C15.5229 20 20 15.5228 20 10C20 4.47715 15.5229 0 10 0C4.47716 0 0 4.47715 0 10C0 15.5228 4.47716 20 10 20ZM9.87902 4.43553C9.03231 6.22172 8.18559 8.00991 7.33888 9.79805C6.49206 11.5865 5.64519 13.3749 4.79838 15.1613H6.97578C7.6613 13.7783 8.34678 12.3932 9.03225 11.0081C9.71773 9.62302 10.4032 8.23794 11.0887 6.85487L9.87902 4.43553ZM11.0887 11.0483C11.4374 10.3225 11.7862 9.59679 12.137 8.87103C12.649 9.91933 13.1591 10.9677 13.6691 12.016C14.1793 13.0644 14.6894 14.1129 15.2015 15.1613H12.8628C12.7298 14.8509 12.5946 14.5424 12.4596 14.2339C12.3245 13.9255 12.1894 13.617 12.0563 13.3065H10.0402H9.99989L10.0402 13.2258C10.3911 12.5 10.7399 11.7742 11.0887 11.0483Z" fill="url(#paint0_linear_539_926)"/>
<defs>
<linearGradient id="paint0_linear_539_926" x1="20" y1="-5.96046e-07" x2="-1.78814e-06" y2="20" gradientUnits="userSpaceOnUse">
<stop stop-color="#B147E1"/>
<stop offset="1" stop-color="#5236DD"/>
</linearGradient>
</defs>
</svg>
