<svg width="131" height="28" viewBox="0 0 131 28" fill="none" xmlns="http://www.w3.org/2000/svg">
<path d="M17.1212 1.99414C10.5062 1.99414 5.14551 7.37061 5.14551 13.9991C5.14551 20.63 10.5062 26.006 17.1212 26.006C23.7353 26.006 29.0965 20.63 29.0965 13.9991C29.0965 7.36921 23.7344 1.99414 17.1212 1.99414ZM16.8901 16.1957C16.7437 16.7053 16.5252 17.1557 16.2248 17.5421C15.9324 17.9238 15.5502 18.2276 15.0921 18.4469C14.6299 18.6649 14.0863 18.7741 13.45 18.7741C12.7917 18.7741 12.2335 18.6565 11.768 18.4241C11.3044 18.1963 10.9301 17.8855 10.6344 17.4963C10.3485 17.1099 10.1338 16.6605 10.0005 16.1481C9.86338 15.6325 9.79788 15.0972 9.79788 14.5358V10.1827H11.6993V14.5358C11.6993 14.8667 11.7301 15.1803 11.7905 15.4738C11.8527 15.7739 11.9496 16.0352 12.0927 16.2685C12.2335 16.5 12.4085 16.6853 12.6336 16.8201C12.8506 16.9559 13.1225 17.0245 13.4495 17.0245C13.7765 17.0245 14.0465 16.9559 14.2715 16.8155C14.4966 16.6755 14.6818 16.4902 14.8152 16.2606C14.956 16.0287 15.0552 15.7608 15.1141 15.4575C15.1712 15.1597 15.2016 14.855 15.2016 14.5372V10.1869H17.103V14.5372H17.1039C17.1035 15.1331 17.0314 15.6833 16.8901 16.1957ZM24.4437 18.775H18.6844V16.9956H24.4437V18.775ZM24.4437 15.3693H18.6844V13.5899H24.4437V15.3693ZM24.4437 11.9649H18.6844V10.1855H24.4437V11.9649Z" fill="url(#paint0_linear_14804_3010)"/>
<path d="M34.242 9.39887V5.69727H35.7494V9.39887C35.7494 9.7708 35.8402 10.0559 36.0222 10.2566C36.2047 10.4582 36.4713 10.5576 36.8241 10.5576C37.1764 10.5576 37.4468 10.4582 37.6349 10.2566C37.822 10.0559 37.9175 9.7708 37.9175 9.39887V5.69727H39.4245V9.39887C39.4245 9.94767 39.2972 10.4199 39.0417 10.8171C38.7863 11.2156 38.4635 11.5054 38.0723 11.6865C37.6812 11.8699 37.2578 11.9609 36.7988 11.9609C36.0826 11.9609 35.4776 11.7369 34.984 11.2893C34.4886 10.8423 34.242 10.2118 34.242 9.39887Z" fill="url(#paint1_linear_14804_3010)"/>
<path d="M40.9745 5.69727H42.4819V10.7503H44.359V11.8988H40.9754L40.9745 5.69727Z" fill="url(#paint2_linear_14804_3010)"/>
<path d="M45.0374 6.8448V5.69727H49.919V6.84667H48.2267V11.8988H46.7198V6.8448H45.0374Z" fill="url(#paint3_linear_14804_3010)"/>
<path d="M51.082 11.8988V5.69727H52.5895V11.8988H51.082Z" fill="url(#paint4_linear_14804_3010)"/>
<path d="M61.1812 5.69727V11.8988H59.6742V8.40067L58.2379 11.8988H57.1183L55.682 8.40067V11.8988H54.175V5.69727H55.9019L57.683 9.9738L59.4539 5.69727H61.1812Z" fill="url(#paint5_linear_14804_3010)"/>
<path d="M66.6991 11.899L66.3557 10.8574H64.1353L63.7942 11.899H62.1895L64.3397 5.68018H66.1728L68.3137 11.899H66.6991ZM64.5128 9.70891H65.9758L65.2441 7.50064L64.5128 9.70891Z" fill="url(#paint6_linear_14804_3010)"/>
<path d="M68.8925 6.8448V5.69727H73.7755V6.84667H72.0814V11.8988H70.5744V6.8448H68.8925Z" fill="url(#paint7_linear_14804_3010)"/>
<path d="M78.6828 5.68018V6.82864H76.4446V8.16284H78.4185V9.31038H76.4446V10.7505H78.6828V11.899H74.9371V5.68018H78.6828Z" fill="url(#paint8_linear_14804_3010)"/>
<path d="M87.0804 11.899L86.7379 10.8574H84.5165L84.1745 11.899H82.5698L84.721 5.68018H86.5536L88.6945 11.899H87.0804ZM84.8945 9.70891H86.3575L85.6263 7.50064L84.8945 9.70891Z" fill="url(#paint9_linear_14804_3010)"/>
<path d="M91.875 5.69727C92.8593 5.69727 93.6715 5.98427 94.3064 6.55967C94.9399 7.1332 95.2567 7.87847 95.2567 8.79453C95.2567 9.7106 94.938 10.4573 94.3064 11.0341C93.6715 11.6099 92.8589 11.8993 91.875 11.8993H89.6976V5.69773L91.875 5.69727ZM91.2041 10.7503H91.875C92.4504 10.7503 92.9029 10.5744 93.2318 10.2197C93.5607 9.866 93.7253 9.39327 93.7253 8.7978C93.7253 8.20233 93.5607 7.72867 93.2318 7.37493C92.9029 7.02167 92.4495 6.84433 91.875 6.84433H91.2041V10.7503Z" fill="url(#paint10_linear_14804_3010)"/>
<path d="M98.6515 5.69727C99.6377 5.69727 100.449 5.98427 101.084 6.55967C101.717 7.1332 102.035 7.87847 102.035 8.79453C102.035 9.7106 101.715 10.4573 101.084 11.0341C100.449 11.6099 99.6377 11.8993 98.6515 11.8993H96.475V5.69773L98.6515 5.69727ZM97.9819 10.7503H98.6519C99.2274 10.7503 99.6798 10.5744 100.01 10.2197C100.339 9.866 100.503 9.39327 100.503 8.7978C100.503 8.20233 100.339 7.72867 100.01 7.37493C99.6807 7.02167 99.2274 6.84433 98.6519 6.84433H97.9819V10.7503Z" fill="url(#paint11_linear_14804_3010)"/>
<path d="M103.811 11.061C103.197 10.4604 102.889 9.70113 102.889 8.78086C102.889 7.862 103.197 7.10366 103.811 6.50586C104.425 5.90946 105.177 5.60986 106.067 5.60986C106.957 5.60986 107.706 5.90946 108.315 6.50586C108.923 7.10366 109.226 7.86293 109.226 8.78086C109.226 9.70113 108.921 10.4604 108.31 11.061C107.698 11.6616 106.95 11.9631 106.062 11.9631C105.175 11.9621 104.425 11.6616 103.811 11.061ZM107.248 10.0801C107.544 9.7576 107.693 9.3236 107.693 8.78133C107.693 8.24093 107.544 7.80693 107.248 7.48353C106.951 7.162 106.555 6.99773 106.058 6.99773C105.56 6.99773 105.165 7.162 104.869 7.48353C104.572 7.80693 104.424 8.24093 104.424 8.78133C104.424 9.3236 104.571 9.7576 104.869 10.0801C105.165 10.4035 105.561 10.5659 106.058 10.5659C106.554 10.5659 106.952 10.4035 107.248 10.0801Z" fill="url(#paint12_linear_14804_3010)"/>
<path d="M114.487 5.68018H115.995V11.899H114.487L111.967 7.98504V11.899H110.457V5.68018H111.967L114.487 9.59411V5.68018Z" fill="url(#paint13_linear_14804_3010)"/>
<path d="M119.677 6.80256C119.491 6.80256 119.335 6.85202 119.215 6.95236C119.094 7.05316 119.035 7.19549 119.035 7.38589C119.035 7.57396 119.089 7.72609 119.201 7.84135C119.31 7.95615 119.458 8.04576 119.638 8.10502C119.818 8.16709 120.017 8.22636 120.236 8.28189C120.458 8.33836 120.675 8.40649 120.891 8.48629C121.11 8.56562 121.309 8.66409 121.486 8.78169C121.667 8.90022 121.809 9.06589 121.924 9.28102C122.033 9.49616 122.09 9.75422 122.09 10.052C122.09 10.577 121.877 11.0254 121.454 11.4011C121.028 11.7749 120.466 11.9611 119.769 11.9611C119.071 11.9611 118.511 11.794 118.084 11.4585C117.658 11.1211 117.446 10.6456 117.446 10.0268H119.05C119.091 10.5228 119.344 10.7697 119.808 10.7697C120.026 10.7697 120.194 10.7123 120.32 10.5975C120.444 10.4836 120.505 10.3357 120.505 10.1598C120.505 9.98289 120.45 9.83869 120.338 9.72622C120.229 9.61562 120.082 9.52555 119.901 9.46162C119.722 9.39675 119.522 9.33609 119.304 9.28102C119.081 9.22456 118.865 9.15456 118.649 9.07336C118.431 8.99122 118.231 8.89276 118.054 8.77702C117.874 8.66316 117.731 8.49656 117.617 8.28142C117.505 8.06629 117.45 7.81196 117.45 7.51609C117.45 6.93976 117.665 6.47589 118.094 6.12869C118.523 5.78149 119.071 5.60742 119.738 5.60742C120.405 5.60742 120.943 5.75956 121.354 6.06429C121.766 6.36622 121.981 6.84549 121.997 7.49836H120.359C120.335 7.27482 120.263 7.10076 120.143 6.98129C120.02 6.86229 119.867 6.80256 119.677 6.80256Z" fill="url(#paint14_linear_14804_3010)"/>
<path d="M34.7515 21.3975V16.6235H37.7V17.3618H35.7139V18.6162H37.2288V19.3545H35.7139V21.3999L34.7515 21.3975Z" fill="url(#paint15_linear_14804_3010)"/>
<path d="M43.3573 21.4458C42.67 21.4458 42.0922 21.2162 41.6244 20.7551C41.156 20.2941 40.9216 19.7098 40.9216 18.9995C40.9216 18.2893 41.1565 17.7064 41.6276 17.2449C42.0983 16.7847 42.6766 16.5542 43.3606 16.5542C44.045 16.5542 44.6219 16.7838 45.0902 17.2449C45.5586 17.705 45.793 18.2893 45.793 18.9995C45.793 19.7098 45.5586 20.2936 45.0902 20.7551C44.6219 21.2171 44.045 21.4458 43.3573 21.4458ZM44.4081 20.1359C44.6776 19.8517 44.8109 19.4713 44.8109 18.9958C44.8109 18.5217 44.6767 18.1455 44.4081 17.8609C44.14 17.5776 43.7901 17.4362 43.3573 17.4362C42.9245 17.4362 42.5732 17.5813 42.3032 17.8646C42.0319 18.1479 41.8971 18.5273 41.8971 19.0023C41.8971 19.4746 42.0314 19.8507 42.3032 20.1382C42.5741 20.4224 42.9255 20.5657 43.3573 20.5657C43.7901 20.5633 44.14 20.4205 44.4081 20.1359Z" fill="url(#paint16_linear_14804_3010)"/>
<path d="M50.2441 19.4958V21.398H49.2808V16.623H51.0353C51.5855 16.623 52.0103 16.7616 52.3083 17.0388C52.6064 17.3142 52.7561 17.6539 52.7561 18.0604C52.7561 18.3618 52.6639 18.6418 52.4828 18.9027C52.3004 19.1645 52.014 19.3404 51.6224 19.437L52.8375 21.3994H51.6973L50.5571 19.4986H50.2427L50.2441 19.4958ZM50.2441 17.3613V18.7557H51.0353C51.2767 18.7557 51.461 18.6927 51.5883 18.569C51.7156 18.4426 51.7801 18.2727 51.7801 18.0585C51.7801 17.8443 51.716 17.6749 51.5883 17.548C51.4615 17.4215 51.2767 17.3613 51.0353 17.3613H50.2441Z" fill="url(#paint17_linear_14804_3010)"/>
<path d="M63.9683 16.6088V17.348H62.1811V18.5996H63.7638V19.3388H62.1811V20.6595H63.9683V21.3978H61.2187V16.6079H63.9683V16.6088Z" fill="url(#paint18_linear_14804_3010)"/>
<path d="M67.6826 16.623H68.6463V20.6672H70.1744V21.398H67.6835L67.6826 16.623Z" fill="url(#paint19_linear_14804_3010)"/>
<path d="M76.3014 16.6088V17.348H74.5147V18.5996H76.0965V19.3388H74.5147V20.6595H76.3014V21.3978H73.5509V16.6079H76.3014V16.6088Z" fill="url(#paint20_linear_14804_3010)"/>
<path d="M85.209 16.623V21.3966H84.2532V18.3805L82.9567 21.3975H82.2662L80.9758 18.394V21.3975H80.0111V16.6235H81.083L82.6133 20.1608L84.1423 16.6235L85.209 16.623Z" fill="url(#paint21_linear_14804_3010)"/>
<path d="M91.7122 16.6088V17.348H89.925V18.5996H91.5106V19.3388H89.925V20.6595H91.7122V21.3978H88.9617V16.6079H91.7122V16.6088Z" fill="url(#paint22_linear_14804_3010)"/>
<path d="M98.5448 16.6089H99.5072V21.3988H98.5448L96.3875 18.0873V21.3988H95.4242V16.6089H96.3875L98.5448 19.9213V16.6089Z" fill="url(#paint23_linear_14804_3010)"/>
<path d="M102.981 17.3613V16.623H106.508V17.3613H105.22V21.3961H104.264V17.3613H102.981Z" fill="url(#paint24_linear_14804_3010)"/>
<path d="M112.146 21.4458C111.46 21.4458 110.881 21.2162 110.413 20.7551C109.944 20.2941 109.709 19.7098 109.709 18.9995C109.709 18.2893 109.945 17.7064 110.417 17.2449C110.889 16.7847 111.465 16.5542 112.15 16.5542C112.836 16.5542 113.412 16.7838 113.881 17.2449C114.348 17.705 114.582 18.2893 114.582 18.9995C114.582 19.7098 114.348 20.2936 113.881 20.7551C113.412 21.2162 112.834 21.4458 112.146 21.4458ZM113.198 20.1359C113.465 19.8517 113.6 19.4713 113.6 18.9958C113.6 18.5217 113.465 18.1455 113.198 17.8609C112.929 17.5776 112.579 17.4362 112.147 17.4362C111.713 17.4362 111.362 17.5813 111.092 17.8646C110.821 18.1479 110.686 18.5273 110.686 19.0023C110.686 19.4746 110.821 19.8507 111.092 20.1382C111.362 20.4224 111.713 20.5657 112.147 20.5657C112.579 20.5633 112.929 20.4205 113.198 20.1359Z" fill="url(#paint25_linear_14804_3010)"/>
<path d="M119.034 19.4958V21.398H118.069V16.623H119.823C120.374 16.623 120.799 16.7616 121.097 17.0388C121.395 17.3142 121.544 17.6539 121.544 18.0604C121.544 18.3618 121.453 18.6418 121.27 18.9027C121.086 19.1645 120.803 19.3404 120.411 19.437L121.626 21.3994H120.485L119.344 19.4986H119.032V19.4972L119.034 19.4958ZM119.034 17.3613V18.7557H119.823C120.067 18.7557 120.25 18.6927 120.379 18.569C120.506 18.443 120.569 18.2727 120.569 18.0585C120.569 17.8443 120.505 17.6749 120.379 17.548C120.252 17.421 120.069 17.3613 119.823 17.3613H119.034Z" fill="url(#paint26_linear_14804_3010)"/>
<path d="M125.059 5.00582H124.643C124.566 5.00582 124.512 4.97642 124.478 4.91902L124.149 4.34642C124.133 4.32076 124.117 4.30349 124.097 4.29369C124.079 4.28202 124.051 4.27549 124.015 4.27549H123.897V5.00536H123.44V3.03369H124.082C124.226 3.03369 124.348 3.04769 124.45 3.07802C124.549 3.10742 124.631 3.14616 124.697 3.19936C124.76 3.25162 124.804 3.31416 124.836 3.38416C124.865 3.45416 124.879 3.53302 124.879 3.61562C124.879 3.68142 124.87 3.74069 124.854 3.79809C124.837 3.85409 124.81 3.90682 124.778 3.95582C124.744 4.00342 124.704 4.04729 124.653 4.08509C124.605 4.12336 124.546 4.15322 124.484 4.17842C124.515 4.19476 124.541 4.21249 124.567 4.23582C124.595 4.25682 124.616 4.28436 124.636 4.31702L125.059 5.00582ZM124.084 3.96096C124.148 3.96096 124.201 3.95256 124.244 3.93622C124.288 3.92082 124.325 3.89982 124.352 3.86996C124.38 3.84102 124.399 3.80882 124.411 3.77056C124.424 3.73416 124.43 3.69402 124.43 3.65016C124.43 3.56382 124.401 3.49569 124.346 3.44622C124.29 3.39862 124.202 3.37529 124.081 3.37529H123.898V3.95956H124.084L124.084 3.96096Z" fill="url(#paint27_linear_14804_3010)"/>
<path d="M125.074 5.01337H124.643C124.563 5.01337 124.504 4.9821 124.472 4.92377L124.143 4.35024C124.127 4.32737 124.111 4.3101 124.094 4.3003C124.078 4.2905 124.05 4.28397 124.017 4.28397H123.91V5.01337H123.433V3.0249H124.084C124.228 3.0249 124.353 3.03937 124.453 3.06877C124.556 3.09817 124.638 3.13877 124.704 3.19337C124.768 3.2461 124.814 3.30957 124.844 3.38144C124.875 3.45424 124.889 3.53357 124.889 3.61617C124.889 3.68057 124.88 3.74264 124.862 3.80097C124.847 3.85744 124.819 3.91204 124.786 3.96197C124.751 4.0105 124.708 4.0553 124.659 4.09264C124.615 4.1253 124.561 4.15704 124.503 4.17944C124.528 4.1953 124.549 4.21024 124.572 4.2303C124.601 4.25364 124.623 4.28024 124.643 4.3143L125.074 5.01337ZM123.891 4.2681H124.017C124.054 4.2681 124.084 4.27464 124.103 4.2863C124.123 4.29844 124.143 4.31664 124.158 4.34277L124.488 4.9149C124.519 4.9709 124.571 4.99844 124.644 4.99844H125.045L124.632 4.32504C124.612 4.2947 124.588 4.2667 124.564 4.24384C124.538 4.22144 124.511 4.20184 124.482 4.18737L124.467 4.1799L124.485 4.17337C124.548 4.14864 124.604 4.11737 124.651 4.0805C124.699 4.04317 124.74 4.00117 124.774 3.9531C124.806 3.90644 124.832 3.85277 124.849 3.7963C124.866 3.74077 124.875 3.6787 124.875 3.61664C124.875 3.53544 124.861 3.4589 124.831 3.38797C124.801 3.3189 124.757 3.25684 124.695 3.20644C124.631 3.15324 124.551 3.11404 124.451 3.08417C124.352 3.05524 124.229 3.0403 124.088 3.0403H123.454V4.9961H123.896V4.26764L123.891 4.2681ZM124.084 3.9685H123.891V3.3679H124.084C124.204 3.3679 124.295 3.39357 124.353 3.44257C124.41 3.4925 124.441 3.56297 124.441 3.65117C124.441 3.69504 124.434 3.73517 124.42 3.7753C124.407 3.8145 124.386 3.84904 124.357 3.87657C124.33 3.90597 124.292 3.92744 124.247 3.9447C124.202 3.96104 124.148 3.9685 124.084 3.9685ZM123.91 3.95217H124.084C124.145 3.95217 124.199 3.9447 124.241 3.9293C124.284 3.91297 124.32 3.89197 124.347 3.8649C124.374 3.83784 124.394 3.8075 124.407 3.77064C124.417 3.73424 124.424 3.6941 124.424 3.6521C124.424 3.56904 124.396 3.50277 124.343 3.45704C124.287 3.40944 124.202 3.38564 124.084 3.38564H123.911V3.9531H123.91V3.95217Z" fill="url(#paint28_linear_14804_3010)"/>
<path d="M124.149 5.72216C123.206 5.72216 122.441 4.95776 122.441 4.01976C122.441 3.07989 123.208 2.31689 124.149 2.31689C125.09 2.31689 125.855 3.08129 125.855 4.01976C125.855 4.95776 125.089 5.72216 124.149 5.72216ZM124.149 2.49283C123.303 2.49283 122.617 3.17743 122.617 4.01976C122.617 4.86209 123.304 5.54669 124.149 5.54669C124.992 5.54669 125.679 4.86163 125.679 4.01976C125.679 3.17743 124.992 2.49283 124.149 2.49283Z" fill="url(#paint29_linear_14804_3010)"/>
<defs>
<linearGradient id="paint0_linear_14804_3010" x1="5.14551" y1="14.0001" x2="29.0967" y2="14.0001" gradientUnits="userSpaceOnUse">
<stop stop-color="#681DDD"/>
<stop offset="1" stop-color="#3A1B95"/>
</linearGradient>
<linearGradient id="paint1_linear_14804_3010" x1="34.2422" y1="8.82902" x2="39.4243" y2="8.82902" gradientUnits="userSpaceOnUse">
<stop stop-color="#681DDD"/>
<stop offset="1" stop-color="#3A1B95"/>
</linearGradient>
<linearGradient id="paint2_linear_14804_3010" x1="40.9745" y1="8.79803" x2="44.3587" y2="8.79803" gradientUnits="userSpaceOnUse">
<stop stop-color="#681DDD"/>
<stop offset="1" stop-color="#3A1B95"/>
</linearGradient>
<linearGradient id="paint3_linear_14804_3010" x1="45.0376" y1="8.79803" x2="49.9191" y2="8.79803" gradientUnits="userSpaceOnUse">
<stop stop-color="#681DDD"/>
<stop offset="1" stop-color="#3A1B95"/>
</linearGradient>
<linearGradient id="paint4_linear_14804_3010" x1="51.0823" y1="8.79803" x2="52.5891" y2="8.79803" gradientUnits="userSpaceOnUse">
<stop stop-color="#681DDD"/>
<stop offset="1" stop-color="#3A1B95"/>
</linearGradient>
<linearGradient id="paint5_linear_14804_3010" x1="54.175" y1="8.79803" x2="61.1814" y2="8.79803" gradientUnits="userSpaceOnUse">
<stop stop-color="#681DDD"/>
<stop offset="1" stop-color="#3A1B95"/>
</linearGradient>
<linearGradient id="paint6_linear_14804_3010" x1="62.1889" y1="8.78953" x2="68.3135" y2="8.78953" gradientUnits="userSpaceOnUse">
<stop stop-color="#681DDD"/>
<stop offset="1" stop-color="#3A1B95"/>
</linearGradient>
<linearGradient id="paint7_linear_14804_3010" x1="68.8924" y1="8.79803" x2="73.7752" y2="8.79803" gradientUnits="userSpaceOnUse">
<stop stop-color="#681DDD"/>
<stop offset="1" stop-color="#3A1B95"/>
</linearGradient>
<linearGradient id="paint8_linear_14804_3010" x1="74.9371" y1="8.78953" x2="78.6827" y2="8.78953" gradientUnits="userSpaceOnUse">
<stop stop-color="#681DDD"/>
<stop offset="1" stop-color="#3A1B95"/>
</linearGradient>
<linearGradient id="paint9_linear_14804_3010" x1="82.5694" y1="8.78953" x2="88.6945" y2="8.78953" gradientUnits="userSpaceOnUse">
<stop stop-color="#681DDD"/>
<stop offset="1" stop-color="#3A1B95"/>
</linearGradient>
<linearGradient id="paint10_linear_14804_3010" x1="89.6974" y1="8.79827" x2="95.2569" y2="8.79827" gradientUnits="userSpaceOnUse">
<stop stop-color="#681DDD"/>
<stop offset="1" stop-color="#3A1B95"/>
</linearGradient>
<linearGradient id="paint11_linear_14804_3010" x1="96.475" y1="8.79827" x2="102.035" y2="8.79827" gradientUnits="userSpaceOnUse">
<stop stop-color="#681DDD"/>
<stop offset="1" stop-color="#3A1B95"/>
</linearGradient>
<linearGradient id="paint12_linear_14804_3010" x1="102.889" y1="8.78651" x2="109.226" y2="8.78651" gradientUnits="userSpaceOnUse">
<stop stop-color="#681DDD"/>
<stop offset="1" stop-color="#3A1B95"/>
</linearGradient>
<linearGradient id="paint13_linear_14804_3010" x1="110.457" y1="8.78953" x2="115.995" y2="8.78953" gradientUnits="userSpaceOnUse">
<stop stop-color="#681DDD"/>
<stop offset="1" stop-color="#3A1B95"/>
</linearGradient>
<linearGradient id="paint14_linear_14804_3010" x1="117.445" y1="8.78482" x2="122.089" y2="8.78482" gradientUnits="userSpaceOnUse">
<stop stop-color="#681DDD"/>
<stop offset="1" stop-color="#3A1B95"/>
</linearGradient>
<linearGradient id="paint15_linear_14804_3010" x1="34.7512" y1="19.0118" x2="37.7" y2="19.0118" gradientUnits="userSpaceOnUse">
<stop stop-color="#681DDD"/>
<stop offset="1" stop-color="#3A1B95"/>
</linearGradient>
<linearGradient id="paint16_linear_14804_3010" x1="40.9215" y1="19" x2="45.7929" y2="19" gradientUnits="userSpaceOnUse">
<stop stop-color="#681DDD"/>
<stop offset="1" stop-color="#3A1B95"/>
</linearGradient>
<linearGradient id="paint17_linear_14804_3010" x1="49.2808" y1="19.0111" x2="52.8377" y2="19.0111" gradientUnits="userSpaceOnUse">
<stop stop-color="#681DDD"/>
<stop offset="1" stop-color="#3A1B95"/>
</linearGradient>
<linearGradient id="paint18_linear_14804_3010" x1="61.219" y1="19.0027" x2="63.9685" y2="19.0027" gradientUnits="userSpaceOnUse">
<stop stop-color="#681DDD"/>
<stop offset="1" stop-color="#3A1B95"/>
</linearGradient>
<linearGradient id="paint19_linear_14804_3010" x1="67.6826" y1="19.0107" x2="70.174" y2="19.0107" gradientUnits="userSpaceOnUse">
<stop stop-color="#681DDD"/>
<stop offset="1" stop-color="#3A1B95"/>
</linearGradient>
<linearGradient id="paint20_linear_14804_3010" x1="73.5509" y1="19.0027" x2="76.3014" y2="19.0027" gradientUnits="userSpaceOnUse">
<stop stop-color="#681DDD"/>
<stop offset="1" stop-color="#3A1B95"/>
</linearGradient>
<linearGradient id="paint21_linear_14804_3010" x1="80.0118" y1="19.0102" x2="85.209" y2="19.0102" gradientUnits="userSpaceOnUse">
<stop stop-color="#681DDD"/>
<stop offset="1" stop-color="#3A1B95"/>
</linearGradient>
<linearGradient id="paint22_linear_14804_3010" x1="88.9619" y1="19.0027" x2="91.7123" y2="19.0027" gradientUnits="userSpaceOnUse">
<stop stop-color="#681DDD"/>
<stop offset="1" stop-color="#3A1B95"/>
</linearGradient>
<linearGradient id="paint23_linear_14804_3010" x1="95.4241" y1="19.0037" x2="99.5069" y2="19.0037" gradientUnits="userSpaceOnUse">
<stop stop-color="#681DDD"/>
<stop offset="1" stop-color="#3A1B95"/>
</linearGradient>
<linearGradient id="paint24_linear_14804_3010" x1="102.981" y1="19.0097" x2="106.508" y2="19.0097" gradientUnits="userSpaceOnUse">
<stop stop-color="#681DDD"/>
<stop offset="1" stop-color="#3A1B95"/>
</linearGradient>
<linearGradient id="paint25_linear_14804_3010" x1="109.709" y1="19" x2="114.582" y2="19" gradientUnits="userSpaceOnUse">
<stop stop-color="#681DDD"/>
<stop offset="1" stop-color="#3A1B95"/>
</linearGradient>
<linearGradient id="paint26_linear_14804_3010" x1="118.07" y1="19.0111" x2="121.626" y2="19.0111" gradientUnits="userSpaceOnUse">
<stop stop-color="#681DDD"/>
<stop offset="1" stop-color="#3A1B95"/>
</linearGradient>
<linearGradient id="paint27_linear_14804_3010" x1="123.44" y1="4.01966" x2="125.059" y2="4.01966" gradientUnits="userSpaceOnUse">
<stop stop-color="#681DDD"/>
<stop offset="1" stop-color="#3A1B95"/>
</linearGradient>
<linearGradient id="paint28_linear_14804_3010" x1="123.433" y1="4.01928" x2="125.074" y2="4.01928" gradientUnits="userSpaceOnUse">
<stop stop-color="#681DDD"/>
<stop offset="1" stop-color="#3A1B95"/>
</linearGradient>
<linearGradient id="paint29_linear_14804_3010" x1="122.441" y1="4.0192" x2="125.854" y2="4.0192" gradientUnits="userSpaceOnUse">
<stop stop-color="#681DDD"/>
<stop offset="1" stop-color="#3A1B95"/>
</linearGradient>
</defs>
</svg>
