<svg width="32" height="32" viewBox="0 0 32 32" fill="none" xmlns="http://www.w3.org/2000/svg">
<path d="M22.6667 8.5H18.5001C18.0398 8.5 17.6667 8.8731 17.6667 9.33333V13.5C17.6667 13.9602 18.0398 14.3333 18.5001 14.3333H22.6667C23.127 14.3333 23.5001 13.9602 23.5001 13.5V9.33333C23.5001 8.8731 23.127 8.5 22.6667 8.5Z" stroke="#6B7280" stroke-width="1.25" stroke-linecap="round" stroke-linejoin="round"/>
<path d="M14.3333 23.4999V12.6666C14.3333 12.4456 14.2455 12.2336 14.0893 12.0773C13.933 11.921 13.721 11.8333 13.5 11.8333H9.33333C9.11232 11.8333 8.90036 11.921 8.74408 12.0773C8.5878 12.2336 8.5 12.4456 8.5 12.6666V22.6666C8.5 22.8876 8.5878 23.0996 8.74408 23.2558C8.90036 23.4121 9.11232 23.4999 9.33333 23.4999H19.3333C19.5543 23.4999 19.7663 23.4121 19.9226 23.2558C20.0789 23.0996 20.1667 22.8876 20.1667 22.6666V18.4999C20.1667 18.2789 20.0789 18.0669 19.9226 17.9107C19.7663 17.7544 19.5543 17.6666 19.3333 17.6666H8.5" stroke="#6B7280" stroke-width="1.25" stroke-linecap="round" stroke-linejoin="round"/>
</svg>
