<svg width="30" height="30" viewBox="0 0 30 30" fill="none" xmlns="http://www.w3.org/2000/svg">
<rect width="30" height="30" rx="15" fill="url(#paint0_linear_14962_4990)"/>
<path d="M14.7039 17.1973C14.516 17.8496 14.2356 18.4261 13.8501 18.9208C13.4748 19.4094 12.9843 19.7983 12.3965 20.0791C11.8033 20.3581 11.1056 20.4978 10.289 20.4978C9.44418 20.4978 8.72787 20.3473 8.13045 20.0498C7.53542 19.7583 7.05508 19.3604 6.67561 18.8622C6.30875 18.3676 6.03316 17.7923 5.86204 17.1364C5.68611 16.4763 5.60205 15.7911 5.60205 15.0724V9.5H8.04218V15.073C8.04218 15.4965 8.08181 15.898 8.15927 16.2737C8.23912 16.6579 8.36341 16.9924 8.54714 17.2911C8.72787 17.5874 8.95243 17.8246 9.24123 17.9972C9.51983 18.171 9.86868 18.2589 10.2884 18.2589C10.7081 18.2589 11.0545 18.1716 11.3433 17.9918C11.6321 17.812 11.8699 17.5754 12.041 17.2815C12.2217 16.9852 12.349 16.6423 12.4247 16.2534C12.4979 15.8717 12.537 15.4822 12.537 15.0748V9.50657H14.9771V15.0748H14.9783C14.9777 15.8371 14.8852 16.5414 14.7039 17.1973Z" fill="white"/>
<path d="M24.3981 18.2222H17.0068V20.5H24.3981V18.2222Z" fill="white"/>
<path d="M24.3981 13.8614H17.0068V16.1392H24.3981V13.8614Z" fill="white"/>
<path d="M24.3981 9.50293H17.0068V11.7808H24.3981V9.50293Z" fill="white"/>
<defs>
<linearGradient id="paint0_linear_14962_4990" x1="15" y1="0" x2="15" y2="30" gradientUnits="userSpaceOnUse">
<stop stop-color="#681DDD"/>
<stop offset="1" stop-color="#3A1B95"/>
</linearGradient>
</defs>
</svg>
