<svg width="123" height="20" viewBox="0 0 123 20" fill="none" xmlns="http://www.w3.org/2000/svg">
<g clip-path="url(#clip0_15325_11558)">
<mask id="mask0_15325_11558" style="mask-type:luminance" maskUnits="userSpaceOnUse" x="0" y="0" width="123" height="20">
<path d="M122.969 0.0429688H0V19.3746H122.969V0.0429688Z" fill="white"/>
</mask>
<g mask="url(#mask0_15325_11558)">
<path d="M82.6465 15.4869H83.8632V11.4863C84.3267 12.1821 85.2536 12.7039 86.2964 12.7039C88.2083 12.7039 89.7146 11.0804 89.7146 9.05115C89.7146 7.07986 88.2083 5.39844 86.2964 5.39844C85.2536 5.39844 84.3267 5.92027 83.8632 6.61603V5.5144H82.6465V15.4869ZM88.4982 9.05115C88.4982 10.4427 87.5131 11.6022 86.1228 11.6022C84.732 11.6022 83.7474 10.5006 83.7474 9.05115C83.7474 7.65966 84.732 6.50006 86.1228 6.50006C87.5131 6.55803 88.4982 7.65966 88.4982 9.05115Z" fill="#776A71"/>
<path d="M91.4526 12.53H92.6694V2.09375H91.4526V12.53Z" fill="#776A71"/>
<path d="M94.3496 9.05095C94.3496 11.0223 95.7981 12.7037 97.7678 12.7037C98.8106 12.7037 99.7375 12.1819 100.201 11.4861V12.5877H101.418V5.63017H100.201V6.73179C99.7375 6.03603 98.8106 5.5142 97.7678 5.5142C95.8559 5.45623 94.3496 7.07966 94.3496 9.05095ZM100.317 9.05095C100.317 10.4425 99.3321 11.6021 97.9418 11.6021C96.551 11.6021 95.5664 10.5004 95.5664 9.05095C95.5664 7.65946 96.551 6.49986 97.9418 6.49986C99.3899 6.55783 100.317 7.65946 100.317 9.05095Z" fill="#776A71"/>
<path d="M105.531 15.4868L110.108 5.57227H108.776L106.4 10.8484L104.025 5.57227H102.692L105.763 12.1819L104.257 15.4868H105.531Z" fill="#776A71"/>
<path d="M110.629 9.051C110.629 11.0803 112.078 12.7037 114.221 12.7037C115.67 12.7037 116.712 12.0659 117.35 11.0223L116.423 10.3845C116.017 11.1383 115.322 11.6021 114.221 11.6021C112.831 11.6021 111.846 10.6164 111.788 9.3409H117.524C117.524 9.16697 117.524 9.10897 117.524 8.993C117.524 6.73181 116.017 5.51426 114.221 5.51426C112.136 5.45626 110.629 7.02171 110.629 9.051ZM114.221 6.49988C115.264 6.49988 116.191 7.19565 116.365 8.35524H111.962C112.136 7.19565 113.178 6.49988 114.221 6.49988Z" fill="#776A71"/>
<path d="M119.262 12.5302H120.478V9.05143C120.478 7.42797 121.463 6.67424 122.332 6.67424C122.564 6.67424 122.738 6.67424 122.969 6.79021V5.57265C122.796 5.51465 122.622 5.51465 122.448 5.51465C121.637 5.51465 120.768 6.03648 120.478 6.96414V5.63061H119.262V12.5302Z" fill="#776A71"/>
<path d="M2.50753 10.6681V13.5568H0.0869141V4.22168H4.18216C4.68962 4.22168 5.15138 4.29266 5.56754 4.43456C5.98364 4.57646 6.33884 4.78422 6.63323 5.05788C6.9377 5.32144 7.1711 5.65595 7.33351 6.06134C7.50605 6.45663 7.59232 6.91785 7.59232 7.44487C7.59232 7.96182 7.50605 8.423 7.33351 8.82843C7.1711 9.22371 6.9377 9.55822 6.63323 9.83185C6.33884 10.1055 5.98364 10.3133 5.56754 10.4552C5.15138 10.5971 4.68962 10.6681 4.18216 10.6681H2.50753ZM5.20218 7.44487C5.20218 7.09015 5.10065 6.80632 4.8977 6.59348C4.69469 6.38063 4.36989 6.27419 3.92335 6.27419H2.50753V8.61558H3.92335C4.36989 8.61558 4.69469 8.50914 4.8977 8.29629C5.10065 8.08344 5.20218 7.79968 5.20218 7.44487Z" fill="#322B2F"/>
<path d="M11.8171 10.4704V13.5568H9.39648V4.22168H13.5983C14.1058 4.22168 14.5675 4.29266 14.9837 4.43456C15.3998 4.57646 15.7551 4.78422 16.0494 5.05788C16.3538 5.32144 16.5873 5.65083 16.7497 6.04612C16.9121 6.44144 16.9933 6.89249 16.9933 7.39927C16.9933 7.89595 16.9121 8.33687 16.7497 8.72198C16.5873 9.09704 16.3538 9.41632 16.0494 9.67985C15.7854 9.90283 15.481 10.0802 15.136 10.212L17.3282 13.5568H14.6183L12.6696 10.4704H11.8171ZM11.8171 8.52436H13.3395C13.7759 8.52436 14.0956 8.423 14.2986 8.22026C14.5016 8.01758 14.6031 7.74392 14.6031 7.39927C14.6031 7.0547 14.5016 6.781 14.2986 6.57826C14.0956 6.37558 13.7759 6.27419 13.3395 6.27419H11.8171V8.52436Z" fill="#322B2F"/>
<path d="M25.5984 4.22168V6.31982H21.3054V7.77937H25.2178V9.83185H21.3054V11.4435H25.5984V13.5568H18.8999V4.22168H25.5984Z" fill="#322B2F"/>
<path d="M29.5951 10.7894C29.6967 11.1137 29.8743 11.357 30.1278 11.5192C30.3918 11.6712 30.7166 11.7472 31.1022 11.7472C31.285 11.7472 31.4524 11.727 31.6047 11.6864C31.767 11.6459 31.899 11.5901 32.0005 11.5192C32.1121 11.4381 32.1984 11.3418 32.2592 11.2303C32.3303 11.1188 32.3658 10.9921 32.3658 10.8502C32.3658 10.6272 32.2897 10.46 32.1374 10.3485C31.9954 10.237 31.7772 10.1458 31.4828 10.0748L29.6864 9.69469C29.3413 9.62378 29.0166 9.52242 28.7121 9.39062C28.4178 9.25889 28.164 9.09167 27.9509 8.8889C27.7378 8.67605 27.5703 8.42269 27.4484 8.12873C27.3267 7.83479 27.2658 7.49018 27.2658 7.09486C27.2658 6.63876 27.3571 6.2232 27.5399 5.84818C27.7225 5.47317 27.9763 5.15893 28.301 4.90554C28.6258 4.64201 29.0065 4.4393 29.4428 4.29737C29.8793 4.14534 30.3512 4.06934 30.8586 4.06934C31.4371 4.06934 31.9497 4.14534 32.3963 4.29737C32.8428 4.4393 33.2235 4.64201 33.538 4.90554C33.863 5.15893 34.1218 5.45795 34.3144 5.80256C34.5074 6.14717 34.6393 6.52222 34.7103 6.92761H32.3049C32.2136 6.66412 32.0512 6.45127 31.8178 6.28906C31.5945 6.11676 31.2799 6.03059 30.8739 6.03059C30.7013 6.03059 30.5441 6.04581 30.4019 6.07622C30.2599 6.10662 30.1381 6.16239 30.0365 6.24347C29.9351 6.31442 29.8539 6.40059 29.7929 6.50191C29.7422 6.59313 29.7169 6.70469 29.7169 6.83642C29.7169 6.93778 29.7321 7.029 29.7626 7.11008C29.7929 7.1912 29.8438 7.26212 29.9147 7.32293C29.9858 7.38374 30.067 7.43445 30.1583 7.47496C30.2599 7.51551 30.3714 7.55096 30.4932 7.58137L32.3202 8.0071C33.1219 8.19968 33.736 8.51896 34.1622 8.96493C34.5883 9.40079 34.8017 9.97852 34.8017 10.6981C34.8017 11.1746 34.7052 11.6003 34.5125 11.9753C34.3297 12.3503 34.0708 12.6645 33.736 12.9179C33.4112 13.1713 33.0256 13.369 32.579 13.5108C32.1426 13.6426 31.6655 13.7085 31.148 13.7085C30.0213 13.7085 29.0978 13.4551 28.3771 12.9483C27.6566 12.4314 27.2151 11.7117 27.0527 10.7894H29.5951Z" fill="#322B2F"/>
<path d="M36.2017 4.22168H44.4223V6.31982H41.5301V13.5568H39.0789V6.31982H36.2017V4.22168Z" fill="#322B2F"/>
<path d="M54.498 8.8889C54.498 9.58828 54.3863 10.2319 54.1634 10.8198C53.9398 11.4077 53.6252 11.9145 53.2195 12.3401C52.8236 12.7658 52.3411 13.1004 51.773 13.3436C51.2148 13.5869 50.5953 13.7085 49.9158 13.7085C49.2461 13.7085 48.6318 13.5869 48.0735 13.3436C47.5152 13.1004 47.0331 12.7658 46.6271 12.3401C46.2316 11.9145 45.922 11.4077 45.6985 10.8198C45.4752 10.2319 45.3638 9.58828 45.3638 8.8889C45.3638 8.18954 45.4752 7.54591 45.6985 6.95805C45.922 6.37018 46.2316 5.86337 46.6271 5.43768C47.0331 5.00184 47.5152 4.66737 48.0735 4.43422C48.6318 4.19096 49.2461 4.06934 49.9158 4.06934C50.5953 4.06934 51.2148 4.19096 51.773 4.43422C52.3411 4.66737 52.8236 5.00184 53.2195 5.43768C53.6252 5.86337 53.9398 6.37018 54.1634 6.95805C54.3863 7.54591 54.498 8.18954 54.498 8.8889ZM52.0319 8.8889C52.0319 8.48351 51.981 8.11862 51.8797 7.79422C51.7781 7.46991 51.6361 7.1912 51.4533 6.95805C51.2708 6.71479 51.0473 6.53232 50.7836 6.41069C50.5192 6.27896 50.2301 6.21306 49.9158 6.21306C49.6008 6.21306 49.3164 6.27896 49.0633 6.41069C48.8095 6.53232 48.5862 6.71479 48.3932 6.95805C48.2104 7.1912 48.0684 7.46991 47.9668 7.79422C47.8758 8.11862 47.8299 8.48351 47.8299 8.8889C47.8299 9.29435 47.8758 9.65927 47.9668 9.98357C48.0684 10.3079 48.2104 10.5917 48.3932 10.835C48.5862 11.0681 48.8095 11.2506 49.0633 11.3823C49.3164 11.5039 49.6008 11.5648 49.9158 11.5648C50.2301 11.5648 50.5192 11.5039 50.7836 11.3823C51.0473 11.2506 51.2708 11.0681 51.4533 10.835C51.6361 10.5917 51.7781 10.3079 51.8797 9.98357C51.981 9.65927 52.0319 9.29435 52.0319 8.8889Z" fill="#322B2F"/>
</g>
<path d="M70.8018 3.28809L76.3779 6.65524L70.8018 9.87602V3.28809Z" fill="#3058E5"/>
<path d="M59.356 3.28809L65.0789 6.65524L59.356 9.87598V3.28809Z" fill="#3058E5"/>
<path d="M70.8018 9.87605L76.3779 6.65527V13.2432L70.8018 9.87605Z" fill="#3A30E5"/>
<path d="M70.802 3.28809V9.87598L65.0791 6.65524L70.802 3.28809Z" fill="#4067EE"/>
<path d="M70.802 3.28814L65.0791 6.65529V0.0673828L70.802 3.28814Z" fill="#476EF9"/>
<path d="M65.0789 6.65527V13.2432L59.356 9.87602L65.0789 6.65527Z" fill="#624AF6"/>
<path d="M65.0789 0.0673828V6.65529L59.356 3.28814L65.0789 0.0673828Z" fill="#4067EE"/>
<path d="M65.0789 13.2432V19.8311L59.356 16.4639L65.0789 13.2432Z" fill="#7C3AED"/>
<path d="M70.8018 9.87598L76.3779 13.2431L70.8018 16.4639V9.87598Z" fill="#4F46E5"/>
<path d="M59.356 9.87598L65.0789 13.2431L59.356 16.4639V9.87598Z" fill="#814AF7"/>
<path d="M70.802 9.87598V16.4639L65.0791 13.2431L70.802 9.87598Z" fill="#624AF6"/>
</g>
<defs>
<clipPath id="clip0_15325_11558">
<rect width="123" height="20" fill="white"/>
</clipPath>
</defs>
</svg>
