<svg width="48" height="48" viewBox="0 0 48 48" fill="none" xmlns="http://www.w3.org/2000/svg">
<path d="M31.4774 23.8316L45.216 15.8408V31.8224L31.4774 23.8316Z" fill="#3A30E5"/>
<path d="M31.4774 7.99121L45.216 15.982L31.4774 23.9728V7.99121Z" fill="#3058E5"/>
<path d="M31.4767 7.99121V23.8326L17.7382 15.8418L31.4767 7.99121Z" fill="#4067EE"/>
<path d="M31.6173 7.99076L17.8788 15.9816V0L31.6173 7.99076Z" fill="#476EF9"/>
<path d="M17.7384 15.9814V31.963L3.99988 23.9722L17.7384 15.9814Z" fill="#624AF6"/>
<path d="M17.7384 0V15.9816L3.99988 7.99076L17.7384 0Z" fill="#4067EE"/>
<path d="M17.7384 31.8232V47.8048L3.99988 39.814L17.7384 31.8232Z" fill="#7C3AED"/>
<path d="M31.4774 23.832L45.216 31.8228L31.4774 39.8136V23.832Z" fill="#4F46E5"/>
<path d="M3.99988 23.832L17.7384 31.8228L3.99988 39.8136V23.832Z" fill="#814AF7"/>
<path d="M3.99988 7.99121L17.7384 15.982L3.99988 23.9728V7.99121Z" fill="#3058E5"/>
<path d="M31.4767 23.832V39.8136L17.7382 31.8228L31.4767 23.832Z" fill="#624AF6"/>
<path d="M31.4774 23.8316L45.216 15.8408V31.8224L31.4774 23.8316Z" fill="#3A30E5"/>
<path d="M31.4774 7.99121L45.216 15.982L31.4774 23.9728V7.99121Z" fill="#3058E5"/>
<path d="M31.4767 7.99121V23.8326L17.7382 15.8418L31.4767 7.99121Z" fill="#4067EE"/>
<path d="M31.6173 7.99076L17.8788 15.9816V0L31.6173 7.99076Z" fill="#476EF9"/>
<path d="M17.7384 15.9814V31.963L3.99988 23.9722L17.7384 15.9814Z" fill="#624AF6"/>
<path d="M17.7384 0V15.9816L3.99988 7.99076L17.7384 0Z" fill="#4067EE"/>
<path d="M17.7384 31.8232V47.8048L3.99988 39.814L17.7384 31.8232Z" fill="#7C3AED"/>
<path d="M31.4774 23.832L45.216 31.8228L31.4774 39.8136V23.832Z" fill="#4F46E5"/>
<path d="M3.99988 23.832L17.7384 31.8228L3.99988 39.8136V23.832Z" fill="#814AF7"/>
<path d="M3.99988 7.99121L17.7384 15.982L3.99988 23.9728V7.99121Z" fill="#3058E5"/>
<path d="M31.4767 23.832V39.8136L17.7382 31.8228L31.4767 23.832Z" fill="#624AF6"/>
<path d="M31.4774 23.8316L45.216 15.8408V31.8224L31.4774 23.8316Z" fill="#3A30E5"/>
<path d="M31.4774 7.99121L45.216 15.982L31.4774 23.9728V7.99121Z" fill="#3058E5"/>
<path d="M31.4767 7.99121V23.8326L17.7382 15.8418L31.4767 7.99121Z" fill="#4067EE"/>
<path d="M31.6173 7.99076L17.8788 15.9816V0L31.6173 7.99076Z" fill="#476EF9"/>
<path d="M17.7384 15.9814V31.963L3.99988 23.9722L17.7384 15.9814Z" fill="#624AF6"/>
<path d="M17.7384 0V15.9816L3.99988 7.99076L17.7384 0Z" fill="#4067EE"/>
<path d="M17.7384 31.8232V47.8048L3.99988 39.814L17.7384 31.8232Z" fill="#7C3AED"/>
<path d="M31.4774 23.832L45.216 31.8228L31.4774 39.8136V23.832Z" fill="#4F46E5"/>
<path d="M3.99988 23.832L17.7384 31.8228L3.99988 39.8136V23.832Z" fill="#814AF7"/>
<path d="M3.99988 7.99121L17.7384 15.982L3.99988 23.9728V7.99121Z" fill="#3058E5"/>
<path d="M31.4767 23.832V39.8136L17.7382 31.8228L31.4767 23.832Z" fill="#624AF6"/>
</svg>
