<svg width="16" height="16" viewBox="0 0 16 16" fill="none" xmlns="http://www.w3.org/2000/svg">
<path d="M2.99935 11C1.99935 11.84 1.66602 14.3333 1.66602 14.3333C1.66602 14.3333 4.15935 14 4.99935 13C5.47268 12.44 5.46602 11.58 4.93935 11.06C4.68022 10.8126 4.33888 10.6697 3.98083 10.6587C3.62279 10.6476 3.27327 10.7691 2.99935 11Z" stroke="#9333EA" stroke-width="1.25" stroke-linecap="round" stroke-linejoin="round"/>
<path d="M8 9.99996L6 7.99996C6.35476 7.07958 6.80147 6.19734 7.33333 5.36663C8.11012 4.12462 9.19175 3.10199 10.4753 2.39602C11.7589 1.69005 13.2018 1.32421 14.6667 1.3333C14.6667 3.14663 14.1467 6.3333 10.6667 8.66663C9.82459 9.19911 8.93123 9.64579 8 9.99996Z" stroke="#9333EA" stroke-width="1.25" stroke-linecap="round" stroke-linejoin="round"/>
<path d="M5.99935 7.99997H2.66602C2.66602 7.99997 3.03268 5.97997 3.99935 5.33331C5.07935 4.61331 7.33268 5.33331 7.33268 5.33331" stroke="#9333EA" stroke-width="1.25" stroke-linecap="round" stroke-linejoin="round"/>
<path d="M8 9.99996V13.3333C8 13.3333 10.02 12.9666 10.6667 12C11.3867 10.92 10.6667 8.66663 10.6667 8.66663" stroke="#9333EA" stroke-width="1.25" stroke-linecap="round" stroke-linejoin="round"/>
</svg>
