<svg width="48" height="48" viewBox="0 0 48 48" fill="none" xmlns="http://www.w3.org/2000/svg">
<g clip-path="url(#clip0_944_14791)">
<path fill-rule="evenodd" clip-rule="evenodd" d="M38.1638 3.93443H9.83593C6.57658 3.93443 3.9343 6.5767 3.9343 9.83605V38.164C3.9343 41.4233 6.57658 44.0656 9.83593 44.0656H38.1638C41.4232 44.0656 44.0654 41.4233 44.0654 38.164V9.83605C44.0654 6.5767 41.4232 3.93443 38.1638 3.93443ZM9.83593 0C4.40364 0 -0.00012207 4.40376 -0.00012207 9.83605V38.164C-0.00012207 43.5963 4.40363 48 9.83593 48H38.1638C43.5961 48 47.9999 43.5963 47.9999 38.164V9.83605C47.9999 4.40376 43.5961 0 38.1638 0H9.83593Z" fill="url(#paint0_linear_944_14791)"/>
<path fill-rule="evenodd" clip-rule="evenodd" d="M29.0045 15.1018C28.9123 15.0193 28.8149 14.9404 28.7125 14.8649C27.8241 14.2109 26.6184 13.8838 25.0955 13.8838C24.0607 13.8838 23.1869 14.0303 22.4743 14.3231C21.7616 14.6062 21.2149 15.0016 20.8342 15.5093C20.4252 16.0689 19.7287 16.5225 19.1264 16.1794C18.6537 15.91 18.2171 15.5778 17.8294 15.1901C17.1062 14.4669 16.5759 13.5738 16.2872 12.5927C16.1599 12.1604 16.2725 11.688 16.6129 11.3927C17.374 10.7322 18.2637 10.1763 19.282 9.72503C21.0002 8.96358 22.9526 8.58282 25.1394 8.58282C27.3653 8.58282 29.308 8.96358 30.9676 9.72503C32.6369 10.4865 33.9353 11.5457 34.8628 12.9027C35.202 13.3991 35.4812 13.9242 35.7003 14.4781C36.3499 16.1205 34.8504 17.6179 33.0842 17.6179C31.7054 17.6179 30.6017 16.5867 29.559 15.6125C29.3726 15.4384 29.1882 15.2661 29.0045 15.1018ZM19.9263 18.3505C20.188 18.2482 20.4683 18.4031 20.6146 18.643C20.8684 19.0432 21.2149 19.3898 21.6542 19.6827C22.0936 19.9658 22.6012 20.2147 23.1772 20.4295C23.7532 20.6345 24.3682 20.8102 25.0223 20.9567L27.7167 21.601C29.0249 21.8939 30.2256 22.2844 31.319 22.7725C32.4124 23.2606 33.3594 23.861 34.1599 24.5736C34.9604 25.2863 35.5803 26.1259 36.0196 27.0923C36.4687 28.0588 36.6981 29.1669 36.7079 30.4164C36.6981 32.2518 36.2295 33.843 35.3021 35.1903C34.3844 36.5277 33.0567 37.5674 31.319 38.3093C29.5911 39.0415 27.5068 39.4076 25.0662 39.4076C22.6451 39.4076 20.5365 39.0366 18.7402 38.2947C16.9537 37.5527 15.5576 36.4545 14.5521 34.9999C14.088 34.3174 13.7268 33.5597 13.4684 32.7267C12.9472 31.0466 14.4327 29.5671 16.1918 29.5671H16.4199C17.9404 29.5671 19.0698 30.8716 19.9849 32.0858C20.5023 32.7497 21.1905 33.2524 22.0496 33.5941C22.9185 33.926 23.8996 34.092 24.993 34.092C26.0669 34.092 26.9992 33.9358 27.7899 33.6234C28.5904 33.311 29.2103 32.8766 29.6497 32.3201C30.089 31.7637 30.3086 31.1242 30.3086 30.4018C30.3086 29.7282 30.1085 29.162 29.7082 28.7031C29.3177 28.2443 28.7418 27.8538 27.9803 27.5317C27.2286 27.2095 26.306 26.9166 25.2126 26.653L21.9471 25.833C19.805 25.3119 18.0448 24.5421 16.6664 23.5236C16.2938 23.2482 16.1563 22.7635 16.2872 22.3191C16.5758 21.338 17.106 20.445 17.8291 19.7218C18.4273 19.1235 19.1418 18.6573 19.9263 18.3505ZM16.046 14.2137L15.759 13.2386C15.7466 13.1963 15.7209 13.1591 15.6856 13.1326C15.6503 13.1062 15.6074 13.0919 15.5633 13.0919C15.5192 13.0919 15.4763 13.1062 15.441 13.1326C15.4057 13.1591 15.38 13.1963 15.3676 13.2386L15.0811 14.2137C14.8885 14.8677 14.535 15.463 14.0528 15.945C13.5707 16.4271 12.9754 16.7805 12.3213 16.973L11.3462 17.2599C11.1509 17.3178 11.1509 17.5942 11.3462 17.6513L12.3213 17.9382C12.9753 18.1307 13.5705 18.4842 14.0526 18.9663C14.5347 19.4483 14.8881 20.0435 15.0807 20.6975L15.3676 21.673C15.4251 21.8678 15.7015 21.8678 15.759 21.673L16.046 20.6979C16.2384 20.0439 16.5919 19.4485 17.074 18.9664C17.556 18.4843 18.1513 18.1308 18.8054 17.9382L19.7809 17.6513C19.9757 17.5938 19.9757 17.3174 19.7809 17.2603L18.8058 16.9734C18.1516 16.7809 17.5563 16.4274 17.0741 15.9452C16.592 15.4631 16.2385 14.8678 16.046 14.2137ZM12.5675 19.9729L12.6536 20.2654C12.7114 20.4616 12.8174 20.6402 12.9621 20.7849C13.1067 20.9295 13.2853 21.0355 13.4815 21.0933L13.7741 21.1794C13.8325 21.1965 13.8325 21.2794 13.7741 21.2967L13.4814 21.3828C13.2852 21.4405 13.1066 21.5466 12.962 21.6912C12.8174 21.8359 12.7113 22.0145 12.6536 22.2107L12.5675 22.5032C12.5503 22.5616 12.4674 22.5616 12.4501 22.5032L12.364 22.2105C12.3063 22.0144 12.2002 21.8358 12.0556 21.6912C11.911 21.5465 11.7324 21.4405 11.5362 21.3828L11.2437 21.2967C11.1851 21.2795 11.1851 21.1966 11.2437 21.1793L11.5362 21.0932C11.7324 21.0354 11.911 20.9294 12.0557 20.7848C12.2003 20.6402 12.3064 20.4616 12.3641 20.2654L12.4501 19.9729C12.4538 19.9602 12.4615 19.949 12.4721 19.9411C12.4827 19.9331 12.4956 19.9288 12.5088 19.9288C12.522 19.9288 12.5349 19.9331 12.5455 19.9411C12.5561 19.949 12.5638 19.9602 12.5675 19.9729ZM12.0068 12.0149L11.8729 11.5599C11.8671 11.5402 11.8551 11.5228 11.8386 11.5105C11.8221 11.4981 11.8021 11.4914 11.7815 11.4914C11.761 11.4914 11.7409 11.4981 11.7245 11.5105C11.708 11.5228 11.696 11.5402 11.6902 11.5599L11.5565 12.0149C11.4666 12.3202 11.3017 12.5979 11.0767 12.8229C10.8517 13.0479 10.5738 13.2128 10.2686 13.3026L9.81351 13.4365C9.72241 13.4635 9.72241 13.5925 9.81351 13.6192L10.2686 13.7531C10.5738 13.8429 10.8516 14.0079 11.0765 14.2328C11.3015 14.4578 11.4665 14.7356 11.5563 15.0407L11.6902 15.496C11.7171 15.5869 11.846 15.5869 11.8729 15.496L12.0068 15.0409C12.0966 14.7357 12.2615 14.4579 12.4865 14.2329C12.7115 14.0079 12.9893 13.8429 13.2945 13.7531L13.7497 13.6192C13.8407 13.5923 13.8407 13.4634 13.7497 13.4367L13.2947 13.3028C12.9894 13.213 12.7116 13.048 12.4866 12.823C12.2616 12.598 12.0966 12.3202 12.0068 12.0149Z" fill="url(#paint1_linear_944_14791)"/>
</g>
<defs>
<linearGradient id="paint0_linear_944_14791" x1="3.12582" y1="47.4366" x2="18.756" y2="-6.94355" gradientUnits="userSpaceOnUse">
<stop stop-color="#C639FF"/>
<stop offset="1" stop-color="#3662FF"/>
</linearGradient>
<linearGradient id="paint1_linear_944_14791" x1="11.5011" y1="39.0458" x2="22.7136" y2="4.92318" gradientUnits="userSpaceOnUse">
<stop stop-color="#C639FF"/>
<stop offset="1" stop-color="#3662FF"/>
</linearGradient>
<clipPath id="clip0_944_14791">
<rect width="48" height="48" fill="white"/>
</clipPath>
</defs>
</svg>
