<svg width="126" height="20" viewBox="0 0 126 20" fill="none" xmlns="http://www.w3.org/2000/svg">
<g clip-path="url(#clip0_15320_13220)">
<path d="M17.4165 7.42798C17.4165 3.39895 14.1763 0.133789 10.178 0.133789H0.0458984V19.8235H1.74853C4.7042 19.8235 7.14337 17.5993 7.50924 14.7197H7.51403L7.52597 11.6642H7.2701C5.22312 11.6642 3.55875 10.0208 3.50136 7.97257H3.49899V6.99904H4.46748C5.82096 6.99904 7.01901 7.67377 7.75077 8.70511C8.44903 6.21106 10.7256 4.3821 13.423 4.3821V5.35563V6.6641C13.423 9.41358 11.3689 11.645 8.64512 11.6618V14.7197C8.99904 17.6066 11.443 19.8428 14.4058 19.8428H17.4213V13.9896H13.3417C15.7569 12.8065 17.4213 10.3124 17.4213 7.42556L17.4165 7.42798Z" fill="#4338CA"/>
<path d="M51.3185 5.25897V3.03723H49.2236V16.9412H51.3185V7.09998C51.6294 6.5289 52.1627 6.01803 52.9206 5.56742C53.6787 5.10716 54.3793 4.87824 55.0274 4.87824C55.2378 4.87824 55.5058 4.89751 55.8357 4.93366V2.71191C54.9605 2.71191 54.1355 2.94566 53.3582 3.41556C52.5834 3.8758 51.9044 4.48787 51.3185 5.25657V5.25897Z" fill="#1B1933"/>
<path d="M66.7308 3.68317C65.7362 3.01809 64.5738 2.68555 63.242 2.68555C61.91 2.68555 60.829 3.01326 59.8081 3.6687C58.787 4.31451 57.9883 5.19647 57.4143 6.31216C56.8475 7.41821 56.5654 8.63752 56.5654 9.96769C56.5654 12.1316 57.2135 13.8955 58.5094 15.2546C59.8055 16.6137 61.4651 17.2932 63.4907 17.2932C65.6428 17.2932 67.4364 16.5703 68.8688 15.1293L67.8691 13.7244C67.3217 14.2955 66.6783 14.7365 65.9394 15.0449C65.2099 15.3534 64.4471 15.51 63.6533 15.51C62.2472 15.51 61.1066 15.0498 60.2312 14.1317C59.3656 13.2136 58.8897 12.069 58.8083 10.7027H69.744V10.1532C69.744 8.74837 69.4881 7.48569 68.9787 6.37239C68.4765 5.24708 67.728 4.35305 66.7332 3.68799L66.7308 3.68317ZM58.7774 9.08331C58.8036 8.53872 58.9184 8.00618 59.1192 7.48087C59.3201 6.9459 59.5927 6.45432 59.9395 6.00371C60.2959 5.54345 60.7574 5.17477 61.3217 4.89284C61.8861 4.61091 62.5175 4.47115 63.2108 4.47115C63.9497 4.47115 64.6121 4.61571 65.1956 4.90729C65.7791 5.18924 66.2454 5.55792 66.5922 6.01818C66.939 6.47842 67.1996 6.97002 67.3719 7.49531C67.5535 8.02063 67.6516 8.55077 67.6588 9.08331H58.7774Z" fill="#1B1933"/>
<path d="M30.9395 9.96769C30.4564 9.67611 29.9137 9.43272 29.3111 9.23755C28.718 9.03995 28.1201 8.87609 27.5176 8.74597C26.9244 8.60621 26.3817 8.45922 25.889 8.30981C25.4061 8.15077 25.0091 7.9339 24.6982 7.66399C24.3873 7.38206 24.232 7.0399 24.232 6.63748C24.232 6.00854 24.5044 5.49044 25.052 5.07597C25.5997 4.65428 26.3242 4.44223 27.2283 4.44223C28.1321 4.44223 28.8663 4.60609 29.5693 4.93381C30.2795 5.25188 30.8464 5.67359 31.2671 6.19889L32.238 4.70971C30.9611 3.36025 29.2919 2.68555 27.2283 2.68555C25.6665 2.68555 24.4399 3.0687 23.5457 3.83738C22.6512 4.59644 22.204 5.54828 22.204 6.69049C22.204 7.38449 22.3594 7.98449 22.6703 8.49054C22.9812 8.98694 23.3829 9.37249 23.8756 9.64237C24.3681 9.91468 24.911 10.1436 25.5039 10.3315C26.1067 10.5195 26.7046 10.6834 27.2975 10.8231C27.8907 10.9629 28.4334 11.1195 28.9261 11.2858C29.4186 11.4545 29.8203 11.693 30.1312 12.0039C30.4421 12.3123 30.5977 12.6931 30.5977 13.1437C30.5977 13.857 30.3107 14.4329 29.7342 14.8739C29.1699 15.3148 28.3808 15.5341 27.3669 15.5341C26.4821 15.5341 25.6379 15.3413 24.8345 14.9582C24.0309 14.5751 23.3877 14.1003 22.9047 13.5389L21.8501 15.1004C23.2179 16.5631 25.0377 17.2932 27.3095 17.2932C28.9883 17.2932 30.2891 16.9004 31.2098 16.1124C32.1399 15.3148 32.6064 14.3076 32.6064 13.0907C32.6064 12.3605 32.4508 11.7268 32.1399 11.1918C31.829 10.6569 31.4273 10.2496 30.9348 9.96769H30.9395Z" fill="#1B1933"/>
<path d="M44.037 13.2567C43.6257 13.8471 43.0565 14.3435 42.3272 14.7459C41.5977 15.1483 40.8396 15.3507 40.0555 15.3507C39.0606 15.3507 38.3025 15.117 37.7835 14.6471C37.2647 14.17 37.004 13.3482 37.004 12.1868V3.03711H34.9092V12.8494C34.9092 15.811 36.3463 17.2929 39.2209 17.2929C40.1702 17.2929 41.0693 17.0737 41.9183 16.6327C42.7672 16.1917 43.4751 15.6447 44.0394 14.9869V16.9411H46.1462V3.03711H44.0394V13.2567H44.037Z" fill="#1B1933"/>
<path d="M79.8806 11.5486C80.6817 11.1462 81.3081 10.5896 81.765 9.87871C82.2335 9.1558 82.4703 8.3341 82.4703 7.41598C82.4703 6.49789 82.2504 5.66895 81.8079 4.97495C81.3656 4.2665 80.7511 3.70987 79.9644 3.30504C79.1774 2.90262 78.2736 2.7002 77.2524 2.7002H71.8696V17.3078H74.7057V12.1318H76.8794L79.84 17.3078H83.0491L79.6941 11.633C79.7562 11.6065 79.8184 11.58 79.8806 11.5486ZM79.2182 8.50276C79.0244 8.82325 78.7567 9.07387 78.4099 9.2546C78.0774 9.43533 77.6997 9.5269 77.2717 9.5269H74.7033V5.31231H77.1257C77.8313 5.31231 78.4026 5.50751 78.8451 5.89547C79.3018 6.28584 79.5291 6.79189 79.5291 7.41841C79.5291 7.82083 79.4261 8.18469 79.2182 8.50276Z" fill="#1B1933"/>
<path d="M92.4781 2.70215H89.642L83.9268 17.3098H86.9304L88.1523 14.0952H94.1593L95.3813 17.3098H98.3849L92.6696 2.70215H92.483H92.4781ZM89.1087 11.5699L91.1533 6.189L93.198 11.5699H89.1087Z" fill="#1B1933"/>
<path d="M109.628 12.5097L102.548 2.70215H99.5874V17.3074H102.423V7.31191L109.628 17.3074H112.446V2.70215H109.628V12.5097Z" fill="#1B1933"/>
<path d="M119.624 9.29029L125.739 2.70215H122.073L116.71 8.48544V2.70215H113.914V17.3074H116.71V12.4325L117.778 11.2807L122.465 17.3074H125.966L119.624 9.29029Z" fill="#1B1933"/>
</g>
<defs>
<clipPath id="clip0_15320_13220">
<rect width="126" height="20" fill="white"/>
</clipPath>
</defs>
</svg>
