<svg width="108" height="20" viewBox="0 0 108 20" fill="none" xmlns="http://www.w3.org/2000/svg">
<g clip-path="url(#clip0_15320_15413)">
<path fill-rule="evenodd" clip-rule="evenodd" d="M9.96923 19.9491C15.4751 19.9491 19.9384 15.4833 19.9384 9.97455C19.9384 4.46576 15.4751 0 9.96923 0C4.46338 0 0 4.46576 0 9.97455C0 15.4833 4.46338 19.9491 9.96923 19.9491ZM10.0122 4.98727C9.21168 4.98727 8.1039 5.44529 7.53787 6.0103L6.00054 7.54485H13.6632L16.2255 4.98727H10.0122ZM12.3877 13.9388C11.8216 14.5037 10.7139 14.9619 9.91338 14.9619H3.70014L6.26235 12.4042H13.925L12.3877 13.9388ZM14.8781 8.82364H4.72222L4.2425 9.30318C3.10657 10.3262 3.44347 11.1255 5.03428 11.1255H15.2176L15.6975 10.6459C16.8224 9.62891 16.4689 8.82364 14.8781 8.82364Z" fill="#01824C"/>
<path fill-rule="evenodd" clip-rule="evenodd" d="M76.2944 13.0273C75.5039 14.4271 74.0743 15.7933 71.6186 15.7933C68.238 15.7933 65.631 13.4321 65.631 9.97474C65.631 6.50051 68.238 4.15625 71.6186 4.15625C74.0743 4.15625 75.5039 5.48861 76.2944 6.90529L74.2424 7.91719C73.7714 7.00647 72.7623 6.28127 71.6186 6.28127C69.5667 6.28127 68.0865 7.84973 68.0865 9.97474C68.0865 12.0997 69.5667 13.6682 71.6186 13.6682C72.7623 13.6682 73.7714 12.943 74.2424 12.0323L76.2944 13.0273ZM83.7401 4.34178L88.0626 15.5908H85.3547L84.6482 13.6851H79.838L79.1316 15.5908H76.4237L80.7463 4.34178H83.7401ZM80.4939 11.5769H83.9923L82.2432 6.73662L80.4939 11.5769ZM98.1977 15.5908L95.658 11.3071C96.869 11.0204 98.1305 9.94101 98.1305 7.96779C98.1305 5.87651 96.684 4.34178 94.3462 4.34178H89.0985V15.5908H91.4869V11.5938H93.236L95.4394 15.5908H98.1977ZM94.0097 9.48565H91.4869V6.44992H94.0097C94.9516 6.44992 95.6749 7.02333 95.6749 7.95093C95.6749 8.91224 94.9516 9.48565 94.0097 9.48565ZM104.737 6.44992V15.5908H102.332V6.44992H99.0523V4.34178H108V6.44992H104.737ZM25.7825 12.8028L24.9233 14.046C26.0391 15.2108 27.5232 15.7933 29.3755 15.7933C30.7443 15.7933 31.8043 15.4796 32.5557 14.8524C33.3144 14.2177 33.6938 13.4151 33.6938 12.4444C33.6938 11.862 33.5674 11.358 33.3144 10.9324C33.0616 10.5068 32.7341 10.1819 32.3325 9.95795C31.9383 9.72648 31.4957 9.53234 31.0047 9.37553C30.5211 9.21874 30.0339 9.08806 29.5429 8.98353C29.0594 8.87153 28.6168 8.75579 28.215 8.63632C27.8208 8.50939 27.4972 8.33766 27.2443 8.12111C26.9913 7.89711 26.8649 7.62458 26.8649 7.3035C26.8649 6.80323 27.0881 6.38883 27.5343 6.06029C27.9807 5.72428 28.572 5.55628 29.3086 5.55628C30.0078 5.55628 30.6439 5.68695 31.2167 5.94829C31.7969 6.20216 32.2581 6.53816 32.6003 6.95631L33.3925 5.76908C32.351 4.69386 30.9897 4.15626 29.3086 4.15626C28.0365 4.15626 27.0359 4.46239 26.3069 5.07467C25.578 5.67949 25.2134 6.43736 25.2134 7.34831C25.2134 7.90085 25.3398 8.37872 25.5928 8.78193C25.8457 9.17766 26.173 9.4838 26.5747 9.70034C26.9765 9.91688 27.4191 10.0998 27.9026 10.2491C28.3936 10.3985 28.8808 10.5292 29.3644 10.6412C29.8479 10.7532 30.2906 10.8764 30.6922 11.0108C31.0939 11.1452 31.4212 11.3356 31.6741 11.582C31.9271 11.8284 32.0535 12.1308 32.0535 12.4892C32.0535 13.0567 31.8192 13.5159 31.3506 13.8668C30.8894 14.2177 30.2458 14.3931 29.4201 14.3931C28.6986 14.3931 28.0105 14.2401 27.3559 13.934C26.7012 13.6279 26.1768 13.2508 25.7825 12.8028ZM35.5693 4.43626V12.254C35.5693 14.6134 36.7409 15.7933 39.0843 15.7933C39.858 15.7933 40.5907 15.6177 41.2825 15.2668C41.9743 14.9159 42.5508 14.479 43.0121 13.9564V15.5133H44.7305V4.43626H43.0121V12.5788C42.6773 13.0492 42.2124 13.4449 41.6172 13.766C41.0221 14.0871 40.4047 14.2476 39.7649 14.2476C38.9541 14.2476 38.3366 14.0609 37.9127 13.6876C37.4886 13.3068 37.2766 12.6534 37.2766 11.7276V4.43626H35.5693ZM47.242 15.5133V4.43626H48.9492V6.20589C49.4254 5.59362 49.9795 5.10454 50.6118 4.73867C51.2441 4.36533 51.9174 4.17867 52.6316 4.17867V5.94829C52.3637 5.91842 52.1442 5.90349 51.9732 5.90349C51.445 5.90349 50.8722 6.08642 50.2547 6.45229C49.6374 6.8107 49.2022 7.21763 48.9492 7.67311V15.5133H47.242ZM53.9157 7.0459C53.4545 7.92698 53.2238 8.89766 53.2238 9.95795C53.2238 11.6828 53.752 13.0865 54.8083 14.1692C55.8647 15.2518 57.2185 15.7933 58.87 15.7933C60.6256 15.7933 62.0874 15.2183 63.2553 14.0684L62.4408 12.9484C61.9944 13.4039 61.4699 13.7548 60.8674 14.0012C60.2723 14.2476 59.6512 14.3708 59.0039 14.3708C57.8583 14.3708 56.9284 14.0049 56.2143 13.2732C55.5076 12.5414 55.1208 11.6305 55.0538 10.5404H63.9694V10.1035C63.9694 8.98353 63.7612 7.97924 63.3446 7.0907C62.9355 6.1947 62.3254 5.48162 61.5146 4.95147C60.7037 4.42133 59.7553 4.15626 58.6691 4.15626C57.6351 4.15626 56.7015 4.4176 55.8684 4.94028C55.0352 5.45547 54.3843 6.15736 53.9157 7.0459ZM62.2734 9.25234H55.0315C55.0538 8.81926 55.1468 8.39366 55.3105 7.97552C55.4741 7.54991 55.6973 7.1579 55.98 6.7995C56.2701 6.43363 56.6457 6.1387 57.1071 5.91468C57.5682 5.69068 58.0815 5.57868 58.6468 5.57868C59.2494 5.57868 59.7888 5.69442 60.2648 5.92589C60.7409 6.14989 61.1203 6.44483 61.403 6.8107C61.6856 7.17657 61.8977 7.56858 62.039 7.98671C62.1878 8.40485 62.2659 8.82673 62.2734 9.25234Z" fill="#26282C"/>
</g>
<defs>
<clipPath id="clip0_15320_15413">
<rect width="108" height="20" fill="white"/>
</clipPath>
</defs>
</svg>
