<svg width="24" height="28" viewBox="0 0 24 28" fill="none" xmlns="http://www.w3.org/2000/svg">
<path d="M14 4C19.5228 4.00014 23.9999 8.47721 24 14C24 16.2511 23.2562 18.3287 22.001 20H24V28H18.6729C15.7123 27.9999 13.1295 26.3905 11.7461 24H11.7412V20.0889C15.5049 20.0641 18.5486 17.0059 18.5488 13.2363V11.4424H18.5498V10.1074C14.8213 10.1074 11.6777 12.6138 10.7119 16.0332C9.70322 14.6172 8.04767 13.6935 6.17676 13.6934H4.83887V15.0283H4.84375C4.92257 17.8366 7.22444 20.0898 10.0518 20.0898H10.4062V24H10.4033C9.01989 26.3906 6.43633 28 3.47559 28H0V4H14Z" fill="#4338CA"/>
</svg>
