<svg width="120" height="20" viewBox="0 0 120 20" fill="none" xmlns="http://www.w3.org/2000/svg">
<g clip-path="url(#clip0_15320_15090)">
<mask id="mask0_15320_15090" style="mask-type:luminance" maskUnits="userSpaceOnUse" x="0" y="0" width="120" height="20">
<path d="M120 0H0V20H120V0Z" fill="white"/>
</mask>
<g mask="url(#mask0_15320_15090)">
<path d="M20 0H0V20H20V0Z" fill="#D54407"/>
<path d="M5.71436 4.28516H14.2858V7.14231H7.14294L5.71436 8.57087V7.14231V4.28516Z" fill="white"/>
<path d="M5.71436 4.28516H14.2858V7.14231H7.14294L5.71436 8.57087V7.14231V4.28516Z" fill="white"/>
<path d="M5.71436 8.57129H12.8572V11.4284H7.14294L5.71436 12.857V11.4284V8.57129Z" fill="white"/>
<path d="M5.71436 8.57129H12.8572V11.4284H7.14294L5.71436 12.857V11.4284V8.57129Z" fill="white"/>
<path d="M5.71436 12.8574H10.0001V15.7145H5.71436V12.8574Z" fill="white"/>
<path d="M5.71436 12.8574H10.0001V15.7145H5.71436V12.8574Z" fill="white"/>
<path fill-rule="evenodd" clip-rule="evenodd" d="M26.6665 13.8363L27.4936 12.6207C27.8732 13.0588 28.3781 13.4274 29.0083 13.7267C29.6384 14.0261 30.3009 14.1757 30.9956 14.1757C31.7905 14.1757 32.41 14.0042 32.8539 13.6611C33.3051 13.3179 33.5308 12.869 33.5308 12.3141C33.5308 11.9637 33.409 11.6681 33.1655 11.4272C32.922 11.1862 32.6069 11.0001 32.2202 10.8687C31.8334 10.7373 31.4073 10.6168 30.9419 10.5074C30.4764 10.3978 30.0073 10.2701 29.5347 10.1241C29.0692 9.97806 28.6431 9.79919 28.2564 9.5875C27.8696 9.37575 27.5545 9.07644 27.311 8.68956C27.0675 8.29531 26.9458 7.82812 26.9458 7.28787C26.9458 6.39719 27.2967 5.65626 27.9986 5.06494C28.7004 4.4663 29.6636 4.16699 30.8882 4.16699C32.5066 4.16699 33.8172 4.69262 34.8198 5.74386L34.0571 6.90462C33.7276 6.49581 33.2836 6.16729 32.7251 5.91907C32.1736 5.66356 31.5613 5.5358 30.8882 5.5358C30.1792 5.5358 29.6098 5.70006 29.1801 6.02857C28.7505 6.34981 28.5356 6.75494 28.5356 7.24406C28.5356 7.558 28.6574 7.82444 28.9009 8.0435C29.1443 8.25519 29.4559 8.42306 29.8354 8.54719C30.2221 8.664 30.6483 8.77712 31.1138 8.88669C31.5864 8.98887 32.0554 9.11662 32.5209 9.26994C32.9936 9.42325 33.4197 9.613 33.7993 9.83937C34.186 10.0583 34.5011 10.3759 34.7446 10.7921C34.9881 11.2081 35.1098 11.7009 35.1098 12.2704C35.1098 13.2194 34.7446 14.0042 34.0141 14.6247C33.2908 15.2379 32.2703 15.5446 30.9526 15.5446C29.1694 15.5446 27.7408 14.9751 26.6665 13.8363ZM36.9153 12.0842V4.44075H38.5589V11.5695C38.5589 12.4747 38.763 13.1136 39.1712 13.4858C39.5794 13.8509 40.1738 14.0334 40.9544 14.0334C41.5703 14.0334 42.1647 13.8764 42.7376 13.5625C43.3104 13.2486 43.7581 12.8617 44.0803 12.4017V4.44075H45.7346V15.2708H44.0803V13.7487C43.6363 14.2597 43.0813 14.6867 42.4153 15.0299C41.7493 15.3729 41.0439 15.5446 40.2991 15.5446C38.0433 15.5446 36.9153 14.3911 36.9153 12.0842ZM48.1524 15.2708H49.796V7.60544C50.0395 7.16012 50.4584 6.76225 51.0529 6.41187C51.6473 6.05412 52.1987 5.87527 52.7071 5.87527C52.8718 5.87527 53.0831 5.88987 53.3409 5.91907V4.1889C52.6534 4.1889 52.0053 4.3714 51.3966 4.73642C50.7878 5.09414 50.2544 5.5723 49.796 6.17094V4.44075H48.1524V15.2708ZM53.9111 9.83937C53.9111 8.80269 54.1331 7.85369 54.5771 6.99225C55.0283 6.12348 55.6549 5.43725 56.457 4.93353C57.2591 4.4225 58.1578 4.16699 59.1533 4.16699C60.1988 4.16699 61.1119 4.42615 61.8925 4.94448C62.6731 5.4628 63.2606 6.15998 63.6543 7.036C64.0549 7.90475 64.2556 8.88662 64.2556 9.98169V10.4087H55.6728C55.7373 11.4746 56.1096 12.3652 56.79 13.0807C57.4775 13.7961 58.3726 14.1538 59.4755 14.1538C60.0986 14.1538 60.6966 14.0334 61.2694 13.7924C61.8496 13.5516 62.3544 13.2085 62.7843 12.7631L63.5681 13.8582C62.4439 14.9824 61.0368 15.5446 59.3466 15.5446C57.7568 15.5446 56.4534 15.0152 55.4365 13.9567C54.4196 12.8982 53.9111 11.5257 53.9111 9.83937ZM55.6513 9.1495H62.6231C62.6162 8.73337 62.5406 8.32087 62.3974 7.91206C62.2613 7.50325 62.0573 7.11994 61.7851 6.76225C61.5129 6.40456 61.1477 6.11618 60.6894 5.89717C60.2311 5.67086 59.7118 5.5577 59.1318 5.5577C58.5875 5.5577 58.0934 5.66721 57.6494 5.88622C57.2054 6.10522 56.8437 6.39362 56.5644 6.75131C56.2923 7.10175 56.0774 7.485 55.9199 7.90106C55.7623 8.30994 55.6728 8.72606 55.6513 9.1495Z" fill="#030712"/>
<path d="M68.2325 15.6353H65.9331V4.63965H73.5762V6.70033H68.2325V9.00827H73.4625V11.069H68.2325V15.6353Z" fill="#030712"/>
<path d="M80.3168 15.8339C77.0462 15.8339 74.6655 13.4599 74.6655 10.1464C74.6655 6.83288 77.0462 4.45898 80.3168 4.45898C83.5712 4.45898 85.9518 6.83288 85.9518 10.1464C85.9518 13.4599 83.5712 15.8339 80.3168 15.8339ZM80.3168 13.7567C82.3087 13.7567 83.5874 12.1906 83.5874 10.1464C83.5874 8.08575 82.3087 6.53613 80.3168 6.53613C78.3087 6.53613 77.0299 8.08575 77.0299 10.1464C77.0299 12.1906 78.3087 13.7567 80.3168 13.7567Z" fill="#030712"/>
<path d="M96.3254 15.6353H93.6698L91.5486 11.7283H89.8648V15.6353H87.5654V4.63965H92.6173C94.8679 4.63965 96.2604 6.13982 96.2604 8.18402C96.2604 10.1128 95.0461 11.1678 93.8804 11.4481L96.3254 15.6353ZM92.2936 9.66764C93.2004 9.66764 93.8967 9.10714 93.8967 8.16752C93.8967 7.26083 93.2004 6.70033 92.2936 6.70033H89.8648V9.66764H92.2936Z" fill="#030712"/>
<path d="M109.678 15.6353H107.362V7.70589L104.318 15.6353H103.314L100.27 7.70589V15.6353H97.9707V4.63965H101.193L103.816 11.514L106.439 4.63965H109.678V15.6353Z" fill="#030712"/>
<path d="M115.676 15.834C113.588 15.834 112.098 15.1251 111.078 14.0865L112.341 12.2567C113.102 13.0644 114.284 13.7568 115.774 13.7568C117.053 13.7568 117.652 13.1798 117.652 12.5369C117.652 10.6246 111.434 11.9599 111.434 7.82212C111.434 5.99224 112.989 4.47559 115.531 4.47559C117.247 4.47559 118.672 5.00312 119.741 6.00872L118.462 7.75618C117.588 6.93187 116.421 6.55274 115.32 6.55274C114.349 6.55274 113.798 6.98137 113.798 7.64074C113.798 9.37174 120 8.20124 120 12.3061C120 14.3173 118.575 15.834 115.676 15.834Z" fill="#030712"/>
</g>
</g>
<defs>
<clipPath id="clip0_15320_15090">
<rect width="120" height="20" fill="white"/>
</clipPath>
</defs>
</svg>
