<svg width="48" height="48" viewBox="0 0 48 48" fill="none" xmlns="http://www.w3.org/2000/svg">
<path d="M46.5 0H1.5C0.671573 0 0 0.671573 0 1.5V46.5C0 47.3284 0.671573 48 1.5 48H46.5C47.3284 48 48 47.3284 48 46.5V1.5C48 0.671573 47.3284 0 46.5 0Z" fill="#0D7EE8"/>
<path d="M12.8049 23.3305C13.2223 23.6323 13.815 23.5332 14.0881 23.1271C14.3901 22.7096 14.2908 22.1168 13.8847 21.8437L9.86465 18.9637C9.72177 18.8536 9.73422 18.7156 9.74045 18.6467C9.74675 18.5778 9.79932 18.4575 9.97227 18.3898L36.7209 11.5701C36.8763 11.5425 36.9678 11.6064 37.0305 11.6815C37.0931 11.7568 37.1558 11.8319 37.0857 11.9923L26.951 37.6357C26.8808 37.7962 26.7543 37.8125 26.6966 37.8351C26.6277 37.8289 26.4898 37.8163 26.4045 37.6836L23.3412 32.0686C23.2446 31.907 23.1656 31.7053 23.069 31.5436C21.87 28.822 21.5674 26.8137 23.8176 24.8354L29.6111 19.474C30.0045 19.1205 30.0432 18.5402 29.7009 18.1756C29.3474 17.7823 28.7671 17.7436 28.4025 18.0858L22.3176 23.3305C19.2517 26.0272 19.7622 29.3815 21.7022 32.9765L24.7656 38.5914C25.1568 39.3357 25.9527 39.7553 26.8037 39.7212C27.028 39.6999 27.2699 39.6384 27.4716 39.5593C28.0192 39.3449 28.4478 38.9111 28.6932 38.3496L38.8279 12.7062C39.1322 11.9554 38.9891 11.0806 38.4475 10.4617C37.9059 9.84276 37.08 9.60111 36.2854 9.77931L9.50802 16.6102C8.696 16.8286 8.08205 17.4679 7.9094 18.3001C7.73667 19.1323 8.09285 19.9569 8.7848 20.4505L12.8049 23.3305Z" fill="white"/>
<path d="M11.5375 31.0501C11.6128 31.0207 11.7033 30.9562 11.7688 30.9017L15.8177 27.348C16.1602 27.0402 16.1939 26.5351 15.8959 26.2176C15.5881 25.8751 15.083 25.8415 14.7656 26.1394L10.7166 29.6931C10.3742 30.0009 10.3405 30.5061 10.6384 30.8235C10.8665 31.1104 11.2113 31.1779 11.5375 31.0501Z" fill="white"/>
<path d="M11.0227 36.7343C11.0981 36.7051 11.1889 36.6409 11.2544 36.5866L18.1356 30.5605C18.4789 30.2536 18.514 29.7486 18.217 29.4303C17.9101 29.0869 17.4051 29.0518 17.0869 29.3489L10.2057 35.375C9.86233 35.6818 9.82723 36.1869 10.1243 36.5051C10.3419 36.7675 10.7213 36.8514 11.0227 36.7343Z" fill="white"/>
</svg>
