<svg width="48" height="48" viewBox="0 0 48 48" fill="none" xmlns="http://www.w3.org/2000/svg">
<path fill-rule="evenodd" clip-rule="evenodd" d="M24 48C37.2549 48 47.9999 37.2547 47.9999 23.9999C47.9999 10.7451 37.2549 0 24 0C10.7451 0 -0.00012207 10.7451 -0.00012207 23.9999C-0.00012207 37.2547 10.7451 48 24 48ZM24.1033 11.9999C22.1762 11.9999 19.5094 13.102 18.1467 14.4615L14.4457 18.1538H32.8929L39.0612 11.9999H24.1033ZM29.8222 33.5383C28.4595 34.8978 25.7926 35.9999 23.8655 35.9999H8.90765L15.076 29.846H33.5232L29.8222 33.5383ZM35.8176 21.2307H11.3682L10.2133 22.3845C7.4787 24.846 8.28978 26.7691 12.1195 26.7691H36.6351L37.7904 25.6153C40.4984 23.1683 39.6473 21.2307 35.8176 21.2307Z" fill="#D54407"/>
</svg>
