<svg width="18" height="20" viewBox="0 0 18 20" fill="none" xmlns="http://www.w3.org/2000/svg">
<path d="M17.4165 7.42798C17.4165 3.39895 14.1763 0.133789 10.178 0.133789H0.0458984V19.8235H1.74853C4.7042 19.8235 7.14337 17.5993 7.50924 14.7197H7.51403L7.52597 11.6642H7.2701C5.22312 11.6642 3.55875 10.0208 3.50136 7.97257H3.49899V6.99904H4.46748C5.82096 6.99904 7.01901 7.67377 7.75077 8.70511C8.44903 6.21106 10.7256 4.3821 13.423 4.3821V5.35563V6.6641C13.423 9.41358 11.3689 11.645 8.64512 11.6618V14.7197C8.99904 17.6066 11.443 19.8428 14.4058 19.8428H17.4213V13.9896H13.3417C15.7569 12.8065 17.4213 10.3124 17.4213 7.42556L17.4165 7.42798Z" fill="#4338CA"/>
</svg>
