<svg width="101" height="20" viewBox="0 0 101 20" fill="none" xmlns="http://www.w3.org/2000/svg">
<g clip-path="url(#clip0_15325_11547)">
<path d="M19.3176 0.0205078H0.86603C0.526345 0.0205078 0.250977 0.297189 0.250977 0.638493V19.178C0.250977 19.5193 0.526345 19.796 0.86603 19.796H19.3176C19.6573 19.796 19.9326 19.5193 19.9326 19.178V0.638493C19.9326 0.297189 19.6573 0.0205078 19.3176 0.0205078Z" fill="#0D7EE8"/>
<path d="M5.50159 9.63283C5.67278 9.7572 5.91581 9.71635 6.02779 9.54901C6.15157 9.37705 6.11091 9.13283 5.94437 9.02031L4.29601 7.83379C4.23744 7.78838 4.24252 7.73157 4.24507 7.70316C4.24765 7.67476 4.26921 7.6252 4.34013 7.59731L15.308 4.78768C15.3717 4.77631 15.4092 4.80264 15.4349 4.83361C15.4606 4.86457 15.4863 4.89553 15.4576 4.96164L11.302 15.5265C11.2732 15.5926 11.2213 15.5993 11.1977 15.6086C11.1694 15.606 11.1129 15.6009 11.0779 15.5462L9.82185 13.2329C9.78222 13.1663 9.74986 13.0832 9.71024 13.0166C9.21862 11.8953 9.09454 11.0679 10.0172 10.2528L12.3927 8.04401C12.554 7.89835 12.5699 7.65927 12.4295 7.50909C12.2846 7.34701 12.0467 7.33109 11.8971 7.47209L9.40215 9.63283C8.14503 10.7438 8.35436 12.1258 9.1498 13.6069L10.4059 15.9202C10.5663 16.2268 10.8927 16.3997 11.2416 16.3856C11.3336 16.3769 11.4328 16.3515 11.5155 16.3189C11.74 16.2306 11.9157 16.0519 12.0164 15.8205L16.1719 5.25572C16.2967 4.94642 16.238 4.58601 16.016 4.33105C15.7939 4.07605 15.4552 3.9765 15.1294 4.0499L4.14978 6.86416C3.81681 6.95413 3.56506 7.21753 3.49427 7.56039C3.42345 7.90324 3.56949 8.24294 3.85323 8.44631L5.50159 9.63283Z" fill="white"/>
<path d="M4.98161 12.8128C5.0125 12.8007 5.04962 12.7741 5.07646 12.7517L6.73665 11.2876C6.8771 11.1608 6.89088 10.9526 6.76872 10.8219C6.64251 10.6808 6.43539 10.6669 6.30523 10.7896L4.64503 12.2537C4.50463 12.3805 4.4908 12.5887 4.61296 12.7194C4.70652 12.8376 4.84788 12.8654 4.98161 12.8128Z" fill="white"/>
<path d="M4.77081 15.155C4.8017 15.143 4.83893 15.1165 4.8658 15.0941L7.68731 12.6114C7.82812 12.485 7.8425 12.277 7.72067 12.1458C7.59487 12.0044 7.38778 11.9899 7.25733 12.1123L4.43578 14.595C4.295 14.7214 4.28063 14.9295 4.40242 15.0606C4.49162 15.1687 4.64721 15.2032 4.77081 15.155Z" fill="white"/>
<path fill-rule="evenodd" clip-rule="evenodd" d="M25.6311 12.7664L24.791 14.0054C25.8821 15.1662 27.3332 15.7467 29.1444 15.7467C30.4828 15.7467 31.5193 15.4341 32.254 14.809C32.9959 14.1765 33.3668 13.3766 33.3668 12.4092C33.3668 11.8288 33.2432 11.3265 32.9959 10.9024C32.7487 10.4782 32.4285 10.1545 32.0358 9.9313C31.6503 9.7006 31.2175 9.50712 30.7374 9.35086C30.2646 9.1946 29.7881 9.06438 29.3081 8.96019C28.8353 8.84856 28.4025 8.73323 28.0096 8.61419C27.6242 8.48767 27.3078 8.31653 27.0605 8.10071C26.8131 7.87749 26.6895 7.6059 26.6895 7.2859C26.6895 6.78734 26.9077 6.37434 27.3441 6.04693C27.7805 5.71208 28.3588 5.54464 29.079 5.54464C29.7627 5.54464 30.3846 5.6749 30.9447 5.93534C31.5121 6.18834 31.963 6.52319 32.2976 6.9399L33.0722 5.75675C32.0539 4.68519 30.7228 4.14941 29.079 4.14941C27.8351 4.14941 26.8567 4.45449 26.1439 5.06467C25.4311 5.66745 25.0747 6.42271 25.0747 7.33056C25.0747 7.88123 25.1983 8.35745 25.4456 8.7593C25.6929 9.15367 26.013 9.45875 26.4057 9.67456C26.7986 9.89038 27.2314 10.0727 27.7042 10.2215C28.1842 10.3703 28.6607 10.5006 29.1336 10.6122C29.6063 10.7238 30.0391 10.8466 30.4319 10.9805C30.8246 11.1145 31.1447 11.3042 31.392 11.5497C31.6394 11.7953 31.763 12.0967 31.763 12.4539C31.763 13.0194 31.5339 13.477 31.0756 13.8268C30.6247 14.1765 29.9954 14.3513 29.188 14.3513C28.4825 14.3513 27.8097 14.1989 27.1696 13.8937C26.5295 13.5887 26.0167 13.2129 25.6311 12.7664ZM35.2008 4.42845V12.2195C35.2008 14.5709 36.3464 15.7467 38.6377 15.7467C39.3944 15.7467 40.1107 15.5717 40.7871 15.222C41.4635 14.8723 42.0274 14.4369 42.4783 13.9161V15.4676H44.1588V4.42845H42.4783V12.5432C42.1509 13.012 41.6964 13.4063 41.1144 13.7263C40.5327 14.0463 39.9289 14.2063 39.3034 14.2063C38.5105 14.2063 37.9067 14.0203 37.492 13.6482C37.0773 13.2687 36.8702 12.6176 36.8702 11.6949V4.42845H35.2008ZM46.6145 15.4676V4.42845H48.2839V6.19204C48.7495 5.58186 49.2913 5.09445 49.9095 4.72982C50.5277 4.35778 51.186 4.17175 51.8845 4.17175V5.93534C51.6224 5.90556 51.4079 5.89067 51.2406 5.89067C50.7241 5.89067 50.1642 6.07297 49.5604 6.4376C48.9566 6.79478 48.5313 7.20034 48.2839 7.65427V15.4676H46.6145ZM53.14 7.02919C52.6892 7.90727 52.4636 8.87464 52.4636 9.9313C52.4636 11.6502 52.98 13.0492 54.0129 14.1282C55.0458 15.2071 56.3694 15.7467 57.9843 15.7467C59.701 15.7467 61.1304 15.1737 62.2724 14.0277L61.4758 12.9115C61.0394 13.3654 60.5267 13.7152 59.9376 13.9607C59.3556 14.2063 58.7481 14.3291 58.1152 14.3291C56.9953 14.3291 56.086 13.9645 55.3875 13.2352C54.6967 12.506 54.3185 11.5981 54.2529 10.5117H62.9706V10.0764C62.9706 8.96019 62.7671 7.95934 62.3598 7.07382C61.9598 6.1809 61.363 5.47023 60.5705 4.9419C59.7773 4.41356 58.8502 4.14941 57.7879 4.14941C56.7768 4.14941 55.8641 4.40986 55.0494 4.93075C54.2348 5.44419 53.5982 6.14367 53.14 7.02919ZM61.3122 9.22808H54.2311C54.2529 8.79649 54.3439 8.37234 54.5039 7.95564C54.6639 7.53149 54.8821 7.14082 55.1585 6.78364C55.442 6.41901 55.8095 6.12508 56.2607 5.90182C56.7115 5.6786 57.2136 5.56697 57.7661 5.56697C58.3555 5.56697 58.8826 5.68234 59.3482 5.91301C59.8138 6.13623 60.185 6.43015 60.4614 6.79478C60.7375 7.15941 60.945 7.55008 61.0829 7.96678C61.2285 8.38349 61.3048 8.80393 61.3122 9.22808Z" fill="#334155"/>
<path d="M74.1084 15.4636V7.38539L70.9597 15.4636H69.9209L66.7722 7.38539V15.4636H64.3936V4.23828H67.7269L70.4403 11.2394L73.1536 4.23828H76.5036V15.4636H74.1084Z" fill="#334155"/>
<path d="M86.5447 15.4636L85.841 13.5282H80.8496L80.1463 15.4636H77.5332L81.8548 4.23828H84.8362L89.1408 15.4636H86.5447ZM83.3455 6.30832L81.4862 11.4581H85.1878L83.3455 6.30832Z" fill="#334155"/>
<path d="M90.1724 15.4636V4.23828H92.5507V15.4636H90.1724Z" fill="#334155"/>
<path d="M93.6045 15.4636V4.23828H95.9832V13.3599H100.707V15.4636H93.6045Z" fill="#334155"/>
</g>
<defs>
<clipPath id="clip0_15325_11547">
<rect width="101" height="20" fill="white"/>
</clipPath>
</defs>
</svg>
