<svg width="20" height="20" viewBox="0 0 20 20" fill="none" xmlns="http://www.w3.org/2000/svg">
<path fill-rule="evenodd" clip-rule="evenodd" d="M10 20C15.5229 20 20 15.5228 20 9.99995C20 4.47713 15.5229 0 10 0C4.47716 0 0 4.47713 0 9.99995C0 15.5228 4.47716 20 10 20ZM10.0431 4.99997C9.24015 4.99997 8.12895 5.45918 7.56117 6.02561L6.01908 7.56407H13.7054L16.2755 4.99997H10.0431ZM12.4259 13.9743C11.8582 14.5407 10.747 14.9999 9.94401 14.9999H3.71157L6.2817 12.4358H13.968L12.4259 13.9743ZM14.9241 8.84611H4.73681L4.2556 9.32688C3.11617 10.3525 3.45412 11.1538 5.04983 11.1538H15.2647L15.746 10.673C16.8744 9.65344 16.5198 8.84611 14.9241 8.84611Z" fill="#01824C"/>
</svg>
