<svg width="32" height="32" viewBox="0 0 32 32" fill="none" xmlns="http://www.w3.org/2000/svg">
<path d="M19.334 24.3332H21.0007C21.4427 24.3332 21.8666 24.1576 22.1792 23.845C22.4917 23.5325 22.6673 23.1085 22.6673 22.6665V12.2498L18.084 7.6665H11.0007C10.5586 7.6665 10.1347 7.8421 9.82214 8.15466C9.50958 8.46722 9.33398 8.89114 9.33398 9.33317V11.8332" stroke="#6B7280" stroke-linecap="round" stroke-linejoin="round"/>
<path d="M17.666 7.6665V12.6665H22.666" stroke="#6B7280" stroke-linecap="round" stroke-linejoin="round"/>
<path d="M9.36734 15.7583C8.86985 16.1963 8.4671 16.7314 8.18377 17.3307C7.90044 17.9299 7.74252 18.5807 7.71969 19.2432C7.69685 19.9057 7.80959 20.5658 8.05098 21.1831C8.29237 21.8005 8.65734 22.362 9.12348 22.8333C9.58963 23.3045 10.1471 23.6756 10.7618 23.9237C11.3765 24.1718 12.0353 24.2918 12.698 24.2762C13.3607 24.2606 14.0132 24.1097 14.6155 23.833C15.2178 23.5562 15.7572 23.1593 16.2007 22.6666" stroke="#6B7280" stroke-width="0.833333" stroke-linecap="round" stroke-linejoin="round"/>
<path d="M17.5243 19.3334C17.5243 18.0449 17.0125 16.8092 16.1014 15.8981C15.1903 14.987 13.9545 14.4751 12.666 14.4751V19.3334H17.5243Z" stroke="#6B7280" stroke-width="0.833333" stroke-linecap="round" stroke-linejoin="round"/>
</svg>
