<svg width="20" height="20" viewBox="0 0 20 20" fill="none" xmlns="http://www.w3.org/2000/svg">
<path d="M13.334 18.3332H15.0007C15.4427 18.3332 15.8666 18.1576 16.1792 17.845C16.4917 17.5325 16.6673 17.1085 16.6673 16.6665V6.24984L12.084 1.6665H5.00065C4.55862 1.6665 4.1347 1.8421 3.82214 2.15466C3.50958 2.46722 3.33398 2.89114 3.33398 3.33317V5.83317" stroke="#64748B" stroke-width="1.5" stroke-linecap="round" stroke-linejoin="round"/>
<path d="M11.666 1.6665V6.6665H16.666" stroke="#64748B" stroke-width="1.5" stroke-linecap="round" stroke-linejoin="round"/>
<path d="M3.36734 9.7583C2.86985 10.1963 2.4671 10.7314 2.18377 11.3307C1.90044 11.9299 1.74252 12.5807 1.71969 13.2432C1.69685 13.9057 1.80959 14.5658 2.05098 15.1831C2.29237 15.8005 2.65734 16.362 3.12348 16.8333C3.58963 17.3045 4.14713 17.6756 4.76179 17.9237C5.37646 18.1718 6.03534 18.2918 6.69801 18.2762C7.36068 18.2606 8.01318 18.1097 8.61549 17.833C9.2178 17.5562 9.75722 17.1593 10.2007 16.6666" stroke="#64748B" stroke-width="1.25" stroke-linecap="round" stroke-linejoin="round"/>
<path d="M11.5243 13.3334C11.5243 12.0449 11.0125 10.8092 10.1014 9.89807C9.19026 8.98696 7.95453 8.4751 6.66602 8.4751V13.3334H11.5243Z" stroke="#64748B" stroke-width="1.25" stroke-linecap="round" stroke-linejoin="round"/>
</svg>
