<svg width="32" height="32" viewBox="0 0 32 32" fill="none" xmlns="http://www.w3.org/2000/svg">
<path d="M21.334 29.3332H24.0007C24.7079 29.3332 25.3862 29.0522 25.8863 28.5521C26.3864 28.052 26.6673 27.3737 26.6673 26.6665V9.99984L19.334 2.6665H8.00065C7.29341 2.6665 6.61513 2.94746 6.11503 3.44755C5.61494 3.94765 5.33398 4.62593 5.33398 5.33317V9.33317" stroke="#6005FF" stroke-linecap="round" stroke-linejoin="round"/>
<path d="M18.666 2.6665V10.6665H26.666" stroke="#6005FF" stroke-linecap="round" stroke-linejoin="round"/>
<path d="M5.38696 15.6133C4.59098 16.3142 3.94657 17.1702 3.49325 18.1291C3.03993 19.0879 2.78725 20.1292 2.75072 21.1891C2.71418 22.249 2.89456 23.3053 3.28079 24.293C3.66702 25.2808 4.25096 26.1792 4.99679 26.9332C5.74262 27.6872 6.63462 28.2809 7.61809 28.6779C8.60156 29.0749 9.65576 29.2668 10.716 29.2418C11.7763 29.2169 12.8203 28.9756 13.784 28.5328C14.7477 28.0899 15.6108 27.4549 16.3203 26.6666" stroke="#6005FF" stroke-width="0.833333" stroke-linecap="round" stroke-linejoin="round"/>
<path d="M18.4393 21.3334C18.4393 19.2718 17.6204 17.2946 16.1626 15.8368C14.7048 14.379 12.7276 13.5601 10.666 13.5601V21.3334H18.4393Z" stroke="#6005FF" stroke-width="0.833333" stroke-linecap="round" stroke-linejoin="round"/>
</svg>
