<svg width="219" height="44" viewBox="0 0 219 44" fill="none" xmlns="http://www.w3.org/2000/svg">
<path d="M21.4151 2.85174C31.8398 2.85174 40.4059 11.4073 40.4059 21.9999C40.4059 32.5925 31.8398 41.148 21.4151 41.148C10.9904 41.148 2.42434 32.5925 2.42434 21.9999C2.42434 11.4073 10.9096 2.85174 21.4151 2.85174ZM21.4151 1.14062C10.0207 1.14062 0.808105 10.511 0.808105 21.9999C0.808105 33.4888 10.0207 42.8591 21.4151 42.8591C32.7288 42.8591 42.0221 33.5703 42.0221 21.9999C42.0221 10.4295 32.7288 1.14062 21.4151 1.14062ZM21.0111 25.8295C20.7686 26.7258 20.3646 27.4591 19.8797 28.1925C19.3948 28.9258 18.6675 29.4147 17.9402 29.7406C17.1321 30.148 16.2432 30.311 15.1118 30.311C13.9804 30.311 13.0107 30.0666 12.2026 29.6591C11.3945 29.2517 10.748 28.6814 10.2631 28.0295C9.77822 27.3777 9.37416 26.5628 9.13172 25.6666C8.88929 24.7703 8.80847 23.7925 8.80847 22.8147V15.2369H12.1218V22.8147C12.1218 23.3851 12.2026 23.9554 12.2834 24.4443C12.3642 24.9332 12.5258 25.4221 12.7683 25.8295C13.0107 26.2369 13.3339 26.5629 13.6572 26.8073C14.0612 27.0517 14.4653 27.1332 15.031 27.1332C15.5967 27.1332 16.0815 26.9703 16.4856 26.7258C16.8897 26.4814 17.2129 26.1554 17.4553 25.748C17.6978 25.3406 17.8594 24.8517 17.9402 24.3628C18.021 23.874 18.1018 23.3036 18.1018 22.7332V15.1554H21.4151V22.7332C21.3343 23.9554 21.2535 24.9332 21.0111 25.8295ZM24.0819 27.2147H34.0218V30.311H24.0819V27.2147ZM24.0819 21.2666H34.0218V24.3628H24.0819V21.2666ZM24.0819 15.3999H34.0218V18.4962H24.0819V15.3999Z" fill="#6005FF"/>
<path d="M54.0631 14.8299V8.39288H56.6491V14.8299C56.6491 15.4818 56.8107 15.9707 57.134 16.2966C57.4572 16.6225 57.8613 16.7855 58.5078 16.7855C59.0734 16.7855 59.5583 16.6225 59.8816 16.2966C60.2048 15.9707 60.3664 15.4818 60.3664 14.8299V8.39288H62.9524V14.8299C62.9524 15.8077 62.71 16.6225 62.3059 17.2744C61.821 18.0077 61.3362 18.4966 60.6089 18.8225C59.9624 19.1484 59.2351 19.3114 58.4269 19.3114C57.2148 19.3114 56.1642 18.904 55.2753 18.1707C54.4672 17.3558 54.0631 16.2966 54.0631 14.8299ZM65.6192 8.39288H68.2052V17.1929H71.4376V19.1484H65.6192V8.39288ZM72.6498 10.3484V8.39288H81.0543V10.3484H78.145V19.1484H75.5591V10.3484H72.6498ZM83.0746 19.1484V8.39288H85.6605V19.1484H83.0746ZM100.449 8.39288V19.1484H97.8631V13.0373L95.3579 19.1484H93.4185L90.9133 13.0373V19.1484H88.3273V8.39288H91.3174L94.3882 15.8077L97.459 8.39288H100.449ZM109.904 19.1484L109.338 17.3558H105.54L104.975 19.1484H102.227L105.944 8.3114H109.096L112.813 19.1484H109.904ZM106.187 15.3188H108.692L107.399 11.4892L106.187 15.3188ZM113.702 10.3484V8.39288H122.107V10.3484H119.197V19.1484H116.611V10.3484H113.702ZM130.511 8.3114V10.267H126.632V12.5484H130.026V14.667H126.632V17.1929H130.511V19.2299H124.046V8.3114H130.511ZM144.976 19.1484L144.411 17.3558H140.613L140.047 19.1484H137.299L141.017 8.3114H144.168L147.886 19.1484H144.976ZM141.259 15.3188H143.764L142.471 11.4892L141.259 15.3188ZM153.219 8.39288C154.916 8.39288 156.29 8.88177 157.421 9.85955C158.553 10.8373 159.038 12.141 159.038 13.7707C159.038 15.3188 158.472 16.6225 157.421 17.6818C156.29 18.6595 154.916 19.2299 153.219 19.2299H149.502V8.39288H153.219ZM152.088 17.1929H153.219C154.189 17.1929 154.997 16.867 155.563 16.2151C156.128 15.5633 156.371 14.7484 156.371 13.7707C156.371 12.7929 156.048 11.8966 155.482 11.3262C154.916 10.6744 154.108 10.4299 153.138 10.4299H152.007L152.088 17.1929ZM164.937 8.39288C166.634 8.39288 168.008 8.88177 169.139 9.85955C170.27 10.8373 170.755 12.141 170.755 13.7707C170.755 15.3188 170.19 16.6225 169.139 17.6818C168.089 18.741 166.634 19.2299 164.937 19.2299H161.22V8.39288H164.937ZM163.725 17.1929H164.856C165.826 17.1929 166.634 16.867 167.2 16.2151C167.765 15.5633 168.089 14.7484 168.089 13.7707C168.089 12.7929 167.765 11.8966 167.2 11.3262C166.634 10.6744 165.826 10.4299 164.856 10.4299H163.725V17.1929ZM173.745 17.6818C172.695 16.6225 172.129 15.3188 172.129 13.6892C172.129 12.0595 172.695 10.7558 173.745 9.69659C174.796 8.63733 176.089 8.14844 177.624 8.14844C179.16 8.14844 180.453 8.63733 181.503 9.69659C182.554 10.7558 183.039 12.0595 183.039 13.6892C183.039 15.3188 182.554 16.6225 181.503 17.6818C180.453 18.741 179.16 19.2299 177.624 19.2299C176.089 19.2299 174.877 18.741 173.745 17.6818ZM179.725 15.9707C180.21 15.4003 180.453 14.667 180.453 13.6892C180.453 12.7114 180.21 11.9781 179.725 11.4077C179.241 10.8373 178.513 10.5114 177.705 10.5114C176.897 10.5114 176.17 10.8373 175.685 11.3262C175.2 11.8966 174.958 12.6299 174.958 13.6077C174.958 14.5855 175.2 15.3188 175.685 15.8892C176.17 16.4595 176.897 16.704 177.705 16.704C178.513 16.704 179.16 16.541 179.725 15.9707ZM192.17 8.3114H194.756V19.1484H192.17L187.807 12.304V19.1484H185.221V8.3114H187.807L192.17 15.0744V8.3114ZM201.06 10.267C200.737 10.267 200.494 10.3484 200.252 10.5114C200.09 10.6744 199.928 10.9188 199.928 11.2447C199.928 11.5707 200.009 11.8151 200.252 12.0595C200.413 12.304 200.656 12.3855 200.979 12.5484C201.302 12.6299 201.625 12.7929 202.03 12.8744C202.434 12.9558 202.757 13.1188 203.161 13.2003C203.565 13.3633 203.888 13.5262 204.211 13.6892C204.535 13.9336 204.777 14.1781 204.939 14.5855C205.1 14.9929 205.262 15.4003 205.262 15.8892C205.262 16.7855 204.939 17.6003 204.131 18.2521C203.403 18.904 202.434 19.2299 201.221 19.2299C200.009 19.2299 199.04 18.904 198.312 18.3336C197.585 17.7633 197.181 16.9484 197.181 15.8892H199.928C200.009 16.704 200.413 17.1929 201.221 17.1929C201.625 17.1929 201.868 17.1114 202.11 16.867C202.353 16.704 202.434 16.4595 202.434 16.1336C202.434 15.8077 202.353 15.5633 202.11 15.4003C201.949 15.2373 201.625 15.0744 201.383 14.9114C201.06 14.8299 200.737 14.667 200.332 14.5855C199.928 14.504 199.605 14.341 199.201 14.2595C198.797 14.0966 198.474 13.9336 198.151 13.7707C197.827 13.6077 197.585 13.2818 197.423 12.8744C197.262 12.467 197.1 12.0595 197.1 11.5707C197.1 10.5929 197.504 9.77807 198.231 9.12622C198.959 8.55584 199.928 8.22992 201.06 8.22992C202.191 8.22992 203.161 8.47436 203.807 9.04473C204.535 9.53362 204.858 10.4299 204.939 11.5707H202.11C202.11 11.1633 201.949 10.9188 201.787 10.6744C201.706 10.4299 201.383 10.267 201.06 10.267ZM54.952 35.6892V27.3781H60.0432V28.6818H56.5683V30.8818H59.1543V32.1855H56.5683V35.7707L54.952 35.6892ZM69.7406 35.7707C68.5284 35.7707 67.5587 35.3633 66.7506 34.5484C65.9424 33.7336 65.5384 32.7558 65.5384 31.4521C65.5384 30.1484 65.9424 29.1707 66.7506 28.4373C67.5587 27.6225 68.5284 27.2151 69.7406 27.2151C70.9528 27.2151 71.9225 27.704 72.7306 28.4373C73.5388 29.2521 73.9428 30.2299 73.9428 31.4521C73.9428 32.6744 73.5388 33.7336 72.7306 34.5484C71.9225 35.3633 70.9528 35.7707 69.7406 35.7707ZM71.5185 33.4892C72.0033 33.0003 72.2458 32.3484 72.2458 31.5336C72.2458 30.7188 72.0033 30.067 71.5185 29.5781C71.0336 29.0892 70.4679 28.8447 69.7406 28.8447C69.0133 28.8447 68.3668 29.0892 67.8819 29.5781C67.3971 30.067 67.1546 30.7188 67.1546 31.5336C67.1546 32.3484 67.3971 33.0003 67.8819 33.4892C68.3668 33.9781 68.9325 34.2225 69.7406 34.2225C70.4679 34.2225 71.1144 33.9781 71.5185 33.4892ZM81.6199 32.3484V35.6892H80.0037V27.3781H82.9937C83.9635 27.3781 84.6908 27.6225 85.1757 28.1114C85.6605 28.6003 85.9838 29.1707 85.9838 29.904C85.9838 30.3929 85.8222 30.8818 85.4989 31.3707C85.1757 31.7781 84.6908 32.104 84.0443 32.267L86.1454 35.6892H84.2059L82.2664 32.3484H81.6199ZM81.6199 28.6818V31.1262H82.9937C83.3978 31.1262 83.721 31.0447 83.9635 30.8003C84.2059 30.5558 84.2867 30.3114 84.2867 29.904C84.2867 29.4966 84.2059 29.2521 83.9635 29.0077C83.721 28.7633 83.3978 28.6818 82.9937 28.6818H81.6199ZM105.217 27.3781V28.6818H102.146V30.8818H104.894V32.1855H102.146V34.467H105.217V35.7707H100.53V27.3781H105.217ZM111.601 27.3781H113.298V34.3855H115.965V35.6892H111.682V27.3781H111.601ZM126.47 27.3781V28.6818H123.4V30.8818H126.147V32.1855H123.4V34.467H126.47V35.7707H121.703V27.3781H126.47ZM141.744 27.3781V35.6892H140.128V30.3929L137.865 35.6077H136.653L134.39 30.3929V35.6077H132.693V27.3781H134.552L137.218 33.4892L139.885 27.3781H141.744ZM152.977 27.3781V28.6818H149.906V30.8818H152.654V32.1855H149.906V34.467H152.977V35.7707H148.209V27.3781H152.977ZM164.694 27.3781H166.392V35.6892H164.775L161.058 29.904V35.6892H159.442V27.3781H161.139L164.856 33.1633L164.694 27.3781ZM172.372 28.6818V27.3781H178.432V28.6818H176.17V35.6892H174.554V28.6818H172.372ZM188.13 35.7707C186.918 35.7707 185.948 35.3633 185.14 34.5484C184.332 33.7336 183.928 32.7558 183.928 31.4521C183.928 30.1484 184.332 29.1707 185.14 28.4373C185.948 27.6225 186.918 27.2151 188.13 27.2151C189.261 27.2151 190.312 27.6225 191.12 28.4373C191.928 29.2521 192.332 30.2299 192.332 31.4521C192.332 32.6744 191.928 33.7336 191.12 34.5484C190.312 35.3633 189.342 35.7707 188.13 35.7707ZM189.908 33.4892C190.393 33.0003 190.635 32.3484 190.635 31.5336C190.635 30.7188 190.393 30.067 189.908 29.5781C189.423 29.0892 188.857 28.8447 188.13 28.8447C187.403 28.8447 186.756 29.0892 186.352 29.5781C185.867 30.067 185.625 30.7188 185.625 31.5336C185.625 32.3484 185.867 33.0003 186.352 33.4892C186.837 33.9781 187.403 34.2225 188.13 34.2225C188.857 34.2225 189.504 33.9781 189.908 33.4892ZM200.009 32.3484V35.6892H198.312V27.3781H201.302C202.272 27.3781 202.999 27.6225 203.484 28.1114C203.969 28.6003 204.292 29.1707 204.292 29.904C204.292 30.3929 204.131 30.8818 203.807 31.3707C203.484 31.7781 202.999 32.104 202.353 32.267L204.454 35.6892H202.514L200.575 32.3484H200.009ZM200.009 28.6818V31.1262H201.383C201.787 31.1262 202.11 31.0447 202.353 30.8003C202.595 30.5558 202.676 30.3114 202.676 29.904C202.676 29.4966 202.595 29.2521 202.353 29.0077C202.11 28.7633 201.787 28.6818 201.383 28.6818H200.009Z" fill="#6005FF"/>
<path d="M216.091 11.0809H214.959C214.717 11.0809 214.636 10.9994 214.475 10.8365L213.586 9.28831C213.505 9.20683 213.505 9.20683 213.424 9.12535C213.343 9.12535 213.262 9.04387 213.182 9.04387H212.858V10.9994H211.727V5.70312H213.424C213.828 5.70312 214.151 5.70312 214.394 5.78461C214.636 5.86609 214.879 5.94757 215.04 6.11053C215.202 6.2735 215.363 6.43646 215.444 6.59942C215.525 6.76238 215.525 7.00683 215.525 7.25127C215.525 7.41424 215.525 7.5772 215.444 7.74016C215.363 7.90313 215.363 8.06609 215.202 8.14757C215.121 8.31053 214.959 8.39201 214.879 8.4735C214.717 8.55498 214.555 8.63646 214.394 8.71794C214.475 8.79942 214.555 8.79942 214.636 8.8809C214.717 8.96238 214.798 9.04387 214.798 9.12535L216.091 11.0809ZM213.424 8.22905C213.586 8.22905 213.747 8.22905 213.828 8.14757C213.909 8.06609 214.07 8.06609 214.151 7.98461C214.232 7.90313 214.313 7.82164 214.313 7.74016C214.313 7.65868 214.394 7.49572 214.394 7.41424C214.394 7.16979 214.313 7.00683 214.151 6.84387C213.99 6.6809 213.747 6.6809 213.424 6.6809H212.939V8.31053H213.424V8.22905Z" fill="#6005FF"/>
<path d="M216.091 11.0809H214.959C214.717 11.0809 214.555 10.9994 214.475 10.8365L213.586 9.28831C213.505 9.20683 213.505 9.20683 213.424 9.12535C213.343 9.12535 213.343 9.04387 213.182 9.04387H212.858V10.9994H211.727V5.70312H213.505C213.909 5.70312 214.232 5.70312 214.475 5.78461C214.717 5.86609 214.959 5.94757 215.121 6.11053C215.283 6.2735 215.444 6.43646 215.525 6.59942C215.606 6.76238 215.606 7.00683 215.606 7.25127C215.606 7.41424 215.606 7.5772 215.525 7.74016C215.444 7.90313 215.444 8.06609 215.283 8.14757C215.202 8.31053 215.04 8.39201 214.959 8.4735C214.879 8.55498 214.717 8.63646 214.555 8.71794C214.636 8.79942 214.717 8.79942 214.717 8.8809C214.798 8.96238 214.879 9.04387 214.879 9.12535L216.091 11.0809ZM212.939 9.04387H213.262C213.343 9.04387 213.424 9.04387 213.505 9.12535C213.586 9.12535 213.586 9.20683 213.666 9.28831L214.555 10.8365C214.636 10.9994 214.798 11.0809 214.959 11.0809H216.01L214.879 9.28831C214.798 9.20683 214.798 9.12535 214.717 9.04387C214.636 8.96238 214.555 8.96238 214.475 8.8809C214.636 8.79942 214.798 8.71794 214.959 8.63646C215.121 8.55498 215.202 8.39201 215.283 8.31053C215.363 8.14757 215.444 8.06609 215.525 7.90312C215.606 7.74016 215.606 7.5772 215.606 7.41424C215.606 7.16979 215.525 7.00683 215.525 6.76238C215.444 6.59942 215.363 6.43646 215.121 6.2735C214.959 6.11053 214.717 6.02905 214.475 5.94757C214.232 5.86609 213.909 5.86609 213.505 5.86609H211.727V11.1624H212.939V9.04387ZM213.424 8.22905H212.939V6.59942H213.424C213.747 6.59942 213.99 6.6809 214.151 6.84387C214.313 7.00683 214.394 7.16979 214.394 7.41424C214.394 7.49572 214.394 7.65868 214.313 7.74016C214.313 7.82164 214.232 7.90313 214.151 7.98461C214.07 8.06609 213.99 8.14757 213.828 8.14757C213.747 8.22905 213.666 8.22905 213.424 8.22905ZM213.02 8.22905H213.505C213.666 8.22905 213.828 8.22905 213.909 8.14757C213.99 8.06609 214.151 8.06609 214.232 7.98461C214.313 7.90313 214.394 7.82164 214.394 7.74016C214.394 7.65868 214.475 7.49572 214.475 7.41424C214.475 7.16979 214.394 7.00683 214.232 6.84387C214.07 6.6809 213.828 6.6809 213.505 6.6809H213.02V8.22905Z" fill="#6005FF"/>
<path d="M213.666 13.0369C211.161 13.0369 209.06 10.9184 209.06 8.39249C209.06 5.86657 211.161 3.74805 213.666 3.74805C216.172 3.74805 218.273 5.78508 218.273 8.39249C218.192 10.9999 216.172 13.0369 213.666 13.0369ZM213.666 4.23694C211.404 4.23694 209.545 6.11101 209.545 8.39249C209.545 10.674 211.404 12.548 213.666 12.548C215.929 12.548 217.788 10.674 217.788 8.39249C217.788 6.11101 215.929 4.23694 213.666 4.23694Z" fill="#6005FF"/>
</svg>
