<svg width="32" height="32" viewBox="0 0 32 32" fill="none" xmlns="http://www.w3.org/2000/svg">
<path d="M21 23.5C22.3807 23.5 23.5 22.3807 23.5 21C23.5 19.6193 22.3807 18.5 21 18.5C19.6193 18.5 18.5 19.6193 18.5 21C18.5 22.3807 19.6193 23.5 21 23.5Z" stroke="#6B7280" stroke-width="1.25" stroke-linecap="round" stroke-linejoin="round"/>
<path d="M11 13.5C12.3807 13.5 13.5 12.3807 13.5 11C13.5 9.61929 12.3807 8.5 11 8.5C9.61929 8.5 8.5 9.61929 8.5 11C8.5 12.3807 9.61929 13.5 11 13.5Z" stroke="#6B7280" stroke-width="1.25" stroke-linecap="round" stroke-linejoin="round"/>
<path d="M16.8333 11H19.3333C19.7753 11 20.1992 11.1756 20.5118 11.4882C20.8243 11.8007 20.9999 12.2246 20.9999 12.6667V18.5" stroke="#6B7280" stroke-width="1.25" stroke-linecap="round" stroke-linejoin="round"/>
<path d="M15.1667 21H12.6667C12.2246 21 11.8007 20.8244 11.4882 20.5118C11.1756 20.1993 11 19.7754 11 19.3333V13.5" stroke="#6B7280" stroke-width="1.25" stroke-linecap="round" stroke-linejoin="round"/>
</svg>
