<svg width="256" height="256" viewBox="0 0 256 256" fill="none" xmlns="http://www.w3.org/2000/svg">
<rect width="256" height="256" fill="white"/>
<path d="M128 1.09668C58.1481 1.09668 1.82812 58.1481 1.82812 128C1.82812 197.851 58.1481 254.902 128 254.902C197.485 254.902 254.171 198.217 254.171 128C254.171 58.1481 197.485 1.09668 128 1.09668ZM125.44 151.04C123.977 156.525 121.417 161.28 118.491 165.302C115.565 169.325 111.542 172.617 106.422 174.811C101.668 177.005 95.8167 178.102 89.2338 178.102C82.2853 178.102 76.4338 177.005 71.6796 174.445C66.9253 171.885 62.9024 168.594 59.611 164.571C56.6853 160.548 54.491 155.794 53.0281 150.308C51.5653 144.822 50.8338 139.337 50.8338 133.12V87.771H70.9481V133.851C70.9481 137.508 71.3138 140.8 72.0453 143.725C72.7767 147.017 73.8738 149.577 75.3367 152.137C76.7996 154.697 78.6281 156.525 81.1881 157.988C83.3824 159.451 86.3081 160.182 89.5996 160.182C92.891 160.182 95.8167 159.451 98.3767 157.988C100.571 156.525 102.765 154.697 104.228 152.137C105.691 149.577 106.788 147.017 107.52 143.725C108.251 140.434 108.617 137.508 108.617 133.851V87.771H128.731V133.851C127.634 140.068 126.902 145.92 125.44 151.04ZM205.165 178.468H144.457V159.817H205.165V178.468ZM205.165 142.628H144.457V123.977H205.165V142.628ZM205.165 106.422H144.457V87.771H205.165V106.422Z" fill="url(#paint0_linear_455_86)"/>
<path d="M125.44 151.039C123.977 156.525 121.417 161.279 118.491 165.302C115.565 169.325 111.543 172.616 106.423 174.811C101.668 177.005 95.8168 178.102 89.234 178.102C82.2854 178.102 76.434 177.005 71.6797 174.445C66.9254 171.885 62.9026 168.593 59.6111 164.571C56.6854 160.548 54.4911 155.793 53.0283 150.308C51.5654 144.822 50.834 139.336 50.834 133.119V87.7705H70.9483V133.851C70.9483 137.508 71.314 140.799 72.0454 143.725C72.7768 147.016 73.874 149.576 75.3368 152.136C76.7997 154.696 78.6283 156.525 81.1883 157.988C83.3826 159.451 86.3083 160.182 89.5997 160.182C92.8911 160.182 95.8168 159.451 98.3768 157.988C100.571 156.525 102.765 154.696 104.228 152.136C105.691 149.576 106.788 147.016 107.52 143.725C108.251 140.433 108.617 137.508 108.617 133.851V87.7705H128.731V133.851C127.634 140.068 126.903 145.919 125.44 151.039ZM205.165 178.468H144.457V159.816H205.165V178.468ZM205.165 142.628H144.457V123.976H205.165V142.628ZM205.165 106.422H144.457V87.7705H205.165V106.422Z" fill="white"/>
<defs>
<linearGradient id="paint0_linear_455_86" x1="1.86726" y1="128" x2="254.132" y2="128" gradientUnits="userSpaceOnUse">
<stop stop-color="#681DDD"/>
<stop offset="1" stop-color="#3A1B95"/>
</linearGradient>
</defs>
</svg>
