<?xml version="1.0" encoding="utf-8"?>
<!-- Generator: Adobe Illustrator 16.0.0, SVG Export Plug-In . SVG Version: 6.00 Build 0)  -->
<!DOCTYPE svg PUBLIC "-//W3C//DTD SVG 1.1//EN" "http://www.w3.org/Graphics/SVG/1.1/DTD/svg11.dtd">
<svg version="1.1" id="Layer_1" xmlns="http://www.w3.org/2000/svg" xmlns:xlink="http://www.w3.org/1999/xlink" x="0px" y="0px"
	 width="250px" height="250px" viewBox="0 0 250 250" enable-background="new 0 0 250 250" xml:space="preserve">
<g>
	
		<linearGradient id="SVGID_1_" gradientUnits="userSpaceOnUse" x1="12.3491" y1="911.4727" x2="196.6505" y2="745.5269" gradientTransform="matrix(1 0 0 1 21.5 -702.5)">
		<stop  offset="0" style="stop-color:#5437DC"/>
		<stop  offset="1" style="stop-color:#EE79FF"/>
	</linearGradient>
	<circle fill="url(#SVGID_1_)" cx="126" cy="126" r="124"/>
</g>
<g>
	<path fill="#FFFFFF" d="M124.508,57.006c-0.003-0.002-0.005-0.004-0.008-0.006c-20.998,44.329-42.002,88.671-63,133
		c8.999,0,18.001,0,27,0c16.994-34.32,33.993-68.651,50.986-102.972L124.508,57.006z"/>
</g>
<path fill="#FFFFFF" d="M152.5,112c-8.666,17.998-17.334,36.002-26,54l-0.5,1h0.5c8.333,0,16.668,0,25,0
	c3.333,7.666,6.667,15.334,10,23c9.666,0,19.334,0,29,0C177.835,164.002,165.166,137.998,152.5,112z"/>
</svg>
